<svg width="328" height="2" viewBox="0 0 328 2" fill="none" xmlns="http://www.w3.org/2000/svg">
<path d="M26.7519 1.98648C26.3515 2.0133 24.6478 1.99374 25.3789 1.98452C25.5818 1.98199 26.3986 1.98755 26.7519 1.98648ZM61.6269 0.0362819C61.334 0.0429092 61.041 0.0491858 60.748 0.0558131C61.5811 0.0601182 62.7005 0.0553825 63.4736 0.0616725C63.6 0.0627294 63.2726 0.082286 63.5713 0.0831569C63.8706 0.084009 63.8137 0.0576438 64.249 0.0548366C64.7383 0.0517827 66.973 0.0699284 67.7471 0.069485C70.643 0.067713 73.5641 0.0527261 76.4658 0.0636256C73.4706 0.0830385 76.4874 0.102303 77.3271 0.0938991C77.5131 0.0919508 77.4838 0.0435308 80.4893 0.0558131C82.3993 0.0636087 80.6355 0.133715 83.8223 0.0987819C81.372 0.0499953 83.7819 0.052552 85.7031 0.0509303C86.0344 0.0506429 88.71 0.0579742 89.8916 0.0558131C90.2958 0.0550426 90.9113 0.0301279 91.4473 0.029446C91.8163 0.0290036 92.0957 0.0428479 92.6435 0.0421413C95.1982 0.038992 97.7113 0.0374173 100.271 0.0421413C98.7763 0.107757 101.439 0.0703264 101.563 0.0733913C102.173 0.0912222 99.4163 0.0964186 100.507 0.107571C102.031 0.105537 103.554 0.103746 105.078 0.101712C103.828 0.0936414 106.735 0.0460451 107.27 0.0675319C107.034 0.00950009 114.215 0.118161 115.309 0.0987819C115.536 0.0946809 114.046 0.066134 117.503 0.0792506C117.877 0.0807085 117.736 0.0984609 117.933 0.0968288C118.051 0.0957517 118.763 0.0397375 119.521 0.0704616C119.795 0.0817034 118.027 0.118347 121.916 0.103665C120.367 0.0470355 127.311 0.0728693 128.589 0.0870631C128.334 0.0794551 128.078 0.0722102 127.823 0.0646022C129.086 0.085127 129.314 0.0655102 129.599 0.0665553C130.745 0.0707703 132.322 0.0907836 133.39 0.0890163C134.64 0.0869786 134.644 0.0518767 136.102 0.0655788C135.756 0.0578095 135.41 0.0499105 135.064 0.0421413C136.071 0.0440127 137.077 0.0451527 138.083 0.0470241C135.754 0.0936246 138.584 0.0500165 138.772 0.0489772C139.07 0.0472802 138.643 0.0660027 139.141 0.0636256C139.192 0.0632178 139.118 0.0451392 139.885 0.0431178C141.488 0.0389611 141.235 0.0619268 141.908 0.0616725C141.97 0.061556 141.754 0.0449959 142.917 0.0411647C146.61 0.0289771 142.903 0.0535501 142.757 0.0558131C142.571 0.0587656 143.837 0.126686 140.698 0.102688C141.752 0.110328 141.859 0.140031 141.978 0.140774C142.087 0.14137 143.905 0.136926 144.009 0.135891C144.907 0.125721 144.117 0.105379 144.292 0.101712C144.437 0.0987783 146.636 0.126137 147.151 0.0646022C148.203 0.121349 146.545 0.11545 144.78 0.124173C144.523 0.135813 146.457 0.147619 146.562 0.14761C149.063 0.147506 147.679 0.100317 148.226 0.0704616C148.513 0.0548408 149.531 0.0869494 148.591 0.045071C150.86 0.0406504 149.484 0.064917 149.631 0.0685085C149.852 0.0737824 150.647 0.0620269 150.746 0.0636256C150.891 0.0660147 150.385 0.080008 150.96 0.08511C151.057 0.0857903 151.981 0.0608895 150.787 0.0489772C152.384 0.0525224 152.252 0.0314932 152.794 0.0743678C153.894 -0.00674252 153.592 0.122557 154.025 0.127102C155.176 0.139059 154.843 0.0756268 154.903 0.0724147C155.322 0.0525168 158.509 0.0737664 159.3 0.0646022C158.987 0.11037 156.773 0.0654755 156.277 0.0743678C154.626 0.103971 158.605 0.096829 157.406 0.154446C157.909 0.138621 158.412 0.123396 158.915 0.107571C159.837 0.144624 158.529 0.160175 161.011 0.146633C161.416 0.114659 159.256 0.152295 159.689 0.127102C159.945 0.112336 161.38 0.108508 161.412 0.100735C161.38 0.0924984 160.146 0.102101 160.345 0.0880397C160.792 0.0568945 165.536 0.0866657 161.926 0.103665C162.933 0.103151 163.452 0.164957 164.325 0.145657C164.89 0.133126 161.712 0.0479404 166.479 0.0636256C166.581 0.0928793 164.573 0.0721416 164.521 0.0743678C164.449 0.0776722 164.81 0.14308 164.874 0.146633C165.096 0.157361 169.965 0.12226 170.994 0.155423C170.588 0.117283 174.673 0.148487 175.118 0.136868C175.237 0.133658 174.794 0.111021 174.921 0.108548C175.711 0.0938428 177.848 0.13481 178.84 0.135891C179.947 0.137108 179.809 0.117357 179.87 0.117337C180.358 0.118462 179.969 0.132011 180.267 0.131985C180.717 0.131919 183.814 0.134834 183.972 0.131985C184.017 0.131095 183.512 0.108039 184.188 0.103665C184.304 0.102972 184.232 0.130108 186.23 0.118313C188.639 0.104111 184.558 0.0844412 185.559 0.0558131C187.106 0.0965686 187.056 0.0565478 187.476 0.0597194C187.622 0.0609139 188.702 0.0950845 189.876 0.0929225C189.033 0.0984963 188.19 0.10395 187.348 0.109524C188.176 0.115545 189.785 0.107612 190.468 0.114407C190.801 0.117718 190.527 0.146412 191.25 0.145657C191.404 0.145342 192.013 0.0767388 190.118 0.107571C189.967 0.0830353 190.868 0.0988711 191.286 0.091946C191.349 0.0908642 191.6 0.0498617 192.134 0.0753444C192.261 0.081705 190.867 0.200925 194.467 0.114407C194.583 0.111619 194.181 0.0970216 194.293 0.0938991C194.37 0.0917977 195.289 0.0979639 195.392 0.0958522C195.496 0.0935719 195.052 0.0766091 195.176 0.0733913C195.81 0.0568505 196.641 0.122277 195.334 0.117337C195.771 0.125353 196.208 0.132758 196.646 0.140774C196.178 0.0919075 197.332 0.127619 197.937 0.126126C201.813 0.116504 199.217 0.0839813 199.884 0.0675319C200.955 0.0411291 200.137 0.12487 201.728 0.0997585C201.875 0.0974085 199.952 0.0621487 203.707 0.0821803C203.153 0.0835632 202.599 0.0847037 202.045 0.0860866C202.365 0.133289 204.046 0.0828432 204.176 0.0821803C205.65 0.0756932 204.653 0.0928497 206.843 0.0685085C207.038 0.0663225 207.465 0.0782351 207.883 0.0724147C209.616 0.0484361 205.595 0.0573765 205.485 0.038235C205.532 0.0292267 209.759 0.0318791 209.906 0.0362819C210.536 0.0560121 207.946 0.0449854 208.439 0.069485C208.62 0.0781875 214.783 0.0599476 216.02 0.069485C217.446 0.0805841 218.089 0.144442 218.098 0.0724147C218.5 0.143116 218.856 0.0953653 219.039 0.0958522C221.245 0.102396 221.25 0.102622 223.142 0.0958522C223.559 0.0943867 223.912 0.11604 224.06 0.112454C224.146 0.110266 223.985 0.0873143 224.406 0.0802272C224.991 0.0705401 228.507 0.0939014 228.771 0.106594C229.032 0.119285 227.286 0.112097 227.599 0.132962C228.863 0.135069 230.076 0.129786 231.349 0.131985C231.877 0.132967 231.606 0.148296 231.834 0.148587C231.934 0.148742 233.75 0.135431 233.68 0.130032C233.498 0.117507 227.861 0.126287 229.345 0.100735C229.631 0.0957966 230.643 0.128961 230.482 0.0880397C235.519 0.0973172 240.555 0.107083 245.592 0.11636C242.698 0.146959 239.442 0.119353 236.411 0.122219C235.996 0.122574 234.591 0.119114 234.762 0.139798C237.339 0.145151 240.544 0.134131 243.019 0.14761C243.097 0.14808 242.807 0.166152 243.104 0.169094C243.658 0.174589 245.464 0.144743 245.768 0.152493C245.816 0.154361 244.792 0.178939 245.104 0.194485C245.906 0.234403 246.11 0.145585 246.8 0.146633C247.334 0.147492 250.917 0.190263 251.81 0.163235C252.758 0.134425 249.168 0.146753 249.434 0.123196C251.863 0.0995248 254.323 0.125169 256.618 0.122219C256.657 0.122081 256.308 0.103315 256.819 0.100735C257.711 0.0962399 257.945 0.122913 258.379 0.127102C258.847 0.131552 260.499 0.12734 260.722 0.136868C260.75 0.138119 260.416 0.164418 260.364 0.165188C259.645 0.175871 259.388 0.142317 259.322 0.141751C259.076 0.140472 258.833 0.153262 258.608 0.152493C258.238 0.151206 258.034 0.138899 257.546 0.137844C257.21 0.137095 257.534 0.160368 257.21 0.159329C257.091 0.158851 255.804 0.106835 255.685 0.160305C255.736 0.177133 266.169 0.198146 267.216 0.184719C266.314 0.17829 265.412 0.171617 264.511 0.165188C266.341 0.180832 268.54 0.138201 268.697 0.201321C275.488 0.206489 282.278 0.211778 289.068 0.216946C290.281 0.222331 289.616 0.262947 291.611 0.251126C291.096 0.238186 290.58 0.225979 290.064 0.21304C291.087 0.222117 295.617 0.238996 296.351 0.230618C296.446 0.229519 296.577 0.192769 297.709 0.189602C298.713 0.186814 298.875 0.214594 299.412 0.219876C299.862 0.224224 300.368 0.2174 300.503 0.218899C300.606 0.220116 300.647 0.236463 300.894 0.239407C301.674 0.248487 301.042 0.201553 301.816 0.256008C301.628 0.258084 301.439 0.259793 301.25 0.261868C302.172 0.269584 303.424 0.29337 302.175 0.305813C302.441 0.304382 302.692 0.30424 302.917 0.301907C303.544 0.326051 307.056 0.311798 307.173 0.316555C307.334 0.323463 306.734 0.342879 307.521 0.359524C307.687 0.363051 312.382 0.348928 310.692 0.381008C310.343 0.387628 308.092 0.381039 307.549 0.381985C308.826 0.433158 311.82 0.359598 312.156 0.361477C313.513 0.369455 309.548 0.406312 312.606 0.412258C314.959 0.416821 312.751 0.381922 313.655 0.367337C314.164 0.359177 316.822 0.397372 316.753 0.348782C317.667 0.343576 317.132 0.369387 317.245 0.371243C317.359 0.372836 319.151 0.358061 319.734 0.368313C319.805 0.369591 319.583 0.39456 319.656 0.396633C319.801 0.400166 321.531 0.394872 321.601 0.392727C321.642 0.391137 321.232 0.369773 321.401 0.364407C321.599 0.358205 323.267 0.362935 323.358 0.356594C323.486 0.347029 321.432 0.353031 321.772 0.328274C322.721 0.33452 324.267 0.31797 324.894 0.298001C324.74 0.30371 323.82 0.304895 323.501 0.302883C323.652 0.266581 325.626 0.267304 324.951 0.296048C325.38 0.280607 325.087 0.272534 325.329 0.257962C325.393 0.254278 326.003 0.253504 326.12 0.247219C326.123 0.245742 325.507 0.232066 325.632 0.224758C325.86 0.211432 327.709 0.214425 327.86 0.217923C328.285 0.227835 326.778 0.23971 326.652 0.255032C326.652 0.257744 327.917 0.287554 327.937 0.290188C328.01 0.318581 326.585 0.297782 326.748 0.323391C327.101 0.328802 327.454 0.334582 327.807 0.339993C326.446 0.365937 323.928 0.352482 323.278 0.381985C325.295 0.373207 327.406 0.374194 327.403 0.440579C327.402 0.468569 326.532 0.48522 326.565 0.492337C326.695 0.517658 327.899 0.490094 327.946 0.49136C327.983 0.492912 328 0.494772 328 0.496243C327.983 0.511013 326.282 0.521695 326.191 0.528469C326.048 0.540443 326.798 0.589081 326.812 0.600735C326.783 0.602957 325.559 0.614748 325.972 0.633938C326.389 0.653292 327.459 0.654396 327.502 0.656399C327.707 0.667989 325.835 0.678839 325.773 0.685696C325.808 0.690119 326.746 0.709962 326.781 0.715969C326.806 0.722112 326.041 0.735647 325.738 0.755032C325.513 0.769425 326.167 0.780102 326.054 0.782376C325.971 0.78387 324.202 0.783761 324.109 0.786282C323.979 0.790028 324.395 0.807368 324.334 0.811673C324.248 0.817841 323.676 0.812142 323.75 0.818508C323.81 0.823343 326.028 0.882745 326.014 0.898587C325.987 0.925559 323.636 0.863209 325.824 0.969876C325.84 0.970577 326.373 0.962382 326.388 0.96304C326.716 0.982674 325.009 1.01324 327.097 1.00796C323.211 1.04206 326.613 1.04837 326.038 1.0939C325.815 1.11139 324.31 1.11862 324.303 1.12124C324.449 1.14345 324.93 1.12696 325.093 1.13784C325.178 1.14397 323.835 1.16657 324.138 1.18179C324.294 1.18964 325.722 1.1871 325.784 1.18863C326.35 1.20306 325.658 1.2184 325.78 1.22866C325.863 1.23554 326.725 1.23622 326.749 1.23745C326.785 1.24003 325.614 1.26771 325.369 1.27749C325.184 1.28501 325.879 1.29764 325.751 1.30093C324.971 1.32054 323.31 1.26992 324.91 1.33999C325.009 1.34427 325.613 1.34304 325.631 1.3439C326.004 1.36374 324.89 1.36475 324.69 1.38101C324.35 1.40899 325.95 1.39353 324.618 1.41324C325.617 1.43156 326.175 1.43104 327.344 1.42593C324.106 1.44018 322.963 1.51272 326.558 1.51089C325.414 1.50976 325.541 1.55118 325.2 1.55191C324.988 1.55231 323.331 1.51141 324.09 1.60269C324.185 1.6141 325.192 1.59984 324.877 1.6232C322.475 1.61728 324.798 1.6375 324.828 1.64077C324.786 1.69433 318.892 1.65028 317.877 1.6564C316.699 1.66351 315.653 1.70615 315.396 1.7062C314.555 1.70622 315.253 1.68483 315.065 1.67691C314.875 1.66907 312.485 1.71033 312.36 1.70816C311.897 1.69906 312.367 1.67331 312.318 1.67202C311.743 1.65641 308.528 1.676 307.628 1.67007C307.656 1.68662 309.463 1.68842 308.335 1.71499C307.024 1.7459 306.946 1.67362 306.911 1.67007C300.889 1.67076 294.867 1.67133 288.846 1.67202C288.923 1.71077 292.858 1.68157 292.947 1.68667C293.473 1.71692 286.823 1.716 286.007 1.7023C286.627 1.71068 287.246 1.71931 287.866 1.72769C286.808 1.7723 284.465 1.71385 282.935 1.73355C282.453 1.73978 283.345 1.75705 283.37 1.75894C282.814 1.77625 281.923 1.76267 282.59 1.73941C281.233 1.7617 281.431 1.73735 280.39 1.7355C280.338 1.73549 280.782 1.75344 279.96 1.76089C279.574 1.76437 277.515 1.76468 277.239 1.78042C277.127 1.7871 278.169 1.85596 278.299 1.79605C280.538 1.82534 279.015 1.76928 279.885 1.77066C280.017 1.77102 279.713 1.80401 281.901 1.78824C281.484 1.84871 278.962 1.80337 278.529 1.8107C277.638 1.82576 281.312 1.85685 281.986 1.80972C281.672 1.85689 282.247 1.81657 283.066 1.81851C283.963 1.82061 283.572 1.83503 284.058 1.83511C285.384 1.83546 284.834 1.80215 285.928 1.83218C284.862 1.73921 287.801 1.81954 288.657 1.8439C287.264 1.84862 285.87 1.85285 284.477 1.85757C284.556 1.86245 284.636 1.86734 284.716 1.87222C284.349 1.87153 283.981 1.87096 283.614 1.87027C283.673 1.86559 283.732 1.86127 283.791 1.85659C281.899 1.88701 281.437 1.85309 281.282 1.85269C279.296 1.84872 277.001 1.84889 274.992 1.84878C274.691 1.84877 274.898 1.87944 272.701 1.85562C272.001 1.84803 272.662 1.82375 271.868 1.8273C270.875 1.89163 270.893 1.84007 270.598 1.83999C269.752 1.84 269.234 1.85638 269.154 1.85659C268.107 1.85908 266.573 1.85618 265.423 1.85855C265.401 1.85879 266 1.87904 265.253 1.8732C264.991 1.87111 262.636 1.78612 260.579 1.81363C261.114 1.81932 261.65 1.82551 262.185 1.8312C261.555 1.82325 257.147 1.84475 258.225 1.86734C258.886 1.88113 260.499 1.82676 260.676 1.87906C259.209 1.8634 251.107 1.88632 250.475 1.87417C250.387 1.87244 250.923 1.85585 250.804 1.85366C250.71 1.85201 248.854 1.8553 248.607 1.84878C248.462 1.84491 249.278 1.83537 249.215 1.82925C249.157 1.8249 246.842 1.81684 246.706 1.83804C247.276 1.82951 248.874 1.8377 248.036 1.85562C247.928 1.85784 247.368 1.844 247.237 1.84683C246.022 1.87288 249.655 1.86615 250.219 1.86636C247.935 1.89345 244.403 1.86139 241.757 1.87906C240.689 1.86136 243.342 1.8527 242.133 1.83804C239.623 1.80764 241.465 1.86215 241.387 1.86441C240.763 1.88226 238.64 1.78667 238.639 1.85952C237.729 1.84856 238.024 1.83926 236.74 1.84878C236.909 1.85382 237.078 1.85937 237.246 1.86441C235.82 1.90658 232.804 1.79929 233.03 1.79116C233.639 1.76946 235.21 1.8037 235.344 1.80288C235.543 1.80159 236.092 1.72805 238.265 1.79409C239.155 1.74451 234.82 1.7605 236.792 1.72671C235.459 1.73225 229.978 1.69811 229.189 1.71988C229.097 1.72286 229.532 1.77135 228.18 1.74624C227.538 1.73428 229.087 1.73406 228.793 1.72281C227.886 1.68828 215.578 1.71024 213.239 1.71206C213.088 1.71212 213.143 1.69728 212.994 1.69741C212.536 1.69784 210.866 1.7201 210.046 1.71304C211.745 1.74142 208.446 1.7435 207.606 1.74038C206.333 1.73563 206.411 1.70901 205.86 1.70327C203.739 1.68117 200.452 1.74558 198.805 1.6857C198.895 1.74514 195.955 1.65594 194.617 1.65542C193.569 1.655 192.05 1.69494 193.464 1.7189C191.655 1.71616 189.751 1.72701 188.055 1.73062C187.774 1.73122 188.16 1.7134 187.682 1.71499C187.638 1.7153 187.578 1.73272 187.168 1.73452C183.776 1.74954 185.426 1.71306 184.791 1.7023C184.436 1.69628 184.174 1.69254 183.981 1.69156C185.958 1.68819 188.24 1.68228 188.85 1.68179C188.329 1.64375 184.467 1.68909 183.336 1.67886C183.302 1.67843 183.405 1.6612 183.401 1.65738H183.392C182.968 1.65577 180.269 1.66265 180.824 1.68765C180.975 1.69431 182.217 1.6948 183.689 1.69253C183.291 1.69722 183.588 1.72083 183.518 1.72183C182.664 1.73343 180.574 1.71028 179.832 1.70718C179.663 1.7065 179.674 1.72177 179.646 1.72183C178.972 1.71841 179.249 1.67557 178.557 1.71988C177.335 1.66633 180.845 1.71167 180.599 1.67691C180.41 1.65027 172.692 1.66454 172.634 1.7062C172.607 1.70169 172.499 1.69695 172.279 1.69058C171.792 1.67642 169.621 1.68085 169.246 1.68863C169.183 1.69022 169.208 1.73024 169.13 1.73062C168.934 1.73156 166.281 1.69959 165.29 1.72378C165.825 1.72952 166.36 1.73562 166.896 1.74136C163.664 1.74172 164.164 1.75353 165.24 1.76577C165.294 1.76589 165.346 1.76756 165.397 1.76773C166.232 1.77678 167.302 1.78598 167.318 1.78921C167.276 1.80131 161.907 1.8073 162.951 1.76968C163.098 1.76449 165.635 1.78213 164.379 1.75503C164.159 1.75029 162.53 1.75802 162.444 1.75503C161.873 1.73517 165.429 1.70805 164.994 1.67984C164.131 1.70668 163.023 1.69341 162.033 1.70034C161.583 1.70348 161.472 1.7234 161.416 1.72378C160.586 1.72914 161.051 1.70763 160.774 1.70816C160.626 1.70853 158.988 1.7547 159.298 1.69156C153.904 1.738 157.805 1.73808 161.114 1.73452C160.069 1.75751 158.019 1.74579 157.1 1.75113C156.77 1.75306 156.965 1.77425 156.407 1.77847C155.259 1.78713 149.782 1.76269 148.354 1.75699C149.231 1.74954 148.974 1.72708 148.298 1.72866C147.622 1.73027 148.19 1.76053 148.058 1.76382C147.911 1.76719 144.741 1.75302 144.214 1.75699C146.604 1.74589 146.064 1.72325 144.036 1.72085C144.329 1.71426 144.623 1.70791 144.916 1.70132C143.727 1.71058 141.229 1.67532 140.541 1.6857C140.433 1.68736 140.82 1.70622 140.76 1.70718C140.157 1.71536 138.107 1.69574 138.011 1.7023C137.93 1.70776 138.804 1.72463 138.479 1.73257C138.409 1.73413 137.567 1.70764 136.738 1.71402C136.43 1.71637 136.615 1.73443 136.538 1.7355C135.891 1.74425 136.273 1.71398 135.091 1.7189C134.225 1.72254 133.579 1.75225 132.382 1.74234C136.312 1.78053 133.008 1.76494 131.364 1.77652C131.101 1.77836 131.327 1.81115 129.753 1.79507C133.102 1.73534 128.797 1.7635 127.917 1.76284C127.869 1.76262 127.852 1.74073 127.42 1.74038C127.384 1.74051 127.435 1.75488 127.035 1.75601C123.229 1.76665 125.662 1.75002 124.939 1.7355C124.632 1.72931 122.78 1.75062 122.281 1.75113C122.167 1.75115 122.219 1.73589 121.776 1.73648C120.992 1.73758 120.288 1.75374 119.771 1.75503C119.71 1.75511 119.707 1.7306 118.726 1.73843C118.45 1.74062 118.14 1.75005 118.531 1.75699C119.831 1.77981 122.298 1.74007 123.768 1.76284C125.108 1.78359 120.882 1.78518 120.662 1.78531C120.584 1.78534 121.406 1.774 120.568 1.77163C119.852 1.76967 118.544 1.81099 117.477 1.80191C117.394 1.80115 116.546 1.766 116.582 1.76382C116.618 1.76232 117.926 1.75451 117.737 1.74429C117.715 1.74312 116.882 1.74312 116.773 1.7355C116.64 1.72614 116.282 1.63531 116.104 1.63296C115.649 1.62733 115.945 1.64806 115.65 1.64663C115.018 1.64359 112.823 1.61705 112.752 1.64859C113.114 1.65046 113.477 1.65257 113.84 1.65445C111.823 1.65769 112.682 1.67099 112.396 1.67691C112.089 1.68327 112.175 1.6551 111.496 1.65249C111.348 1.65192 108.504 1.65844 108.556 1.67007C110.129 1.65156 109.546 1.68508 109.618 1.6857C109.894 1.68791 110.246 1.66871 110.615 1.66909C113.216 1.6721 110.593 1.70231 111.207 1.71011C111.418 1.71273 111.839 1.6966 111.929 1.69741C112.22 1.70013 112.225 1.72157 112.419 1.71988C112.87 1.71586 112.348 1.68558 112.379 1.68374C112.784 1.66472 114.372 1.68875 113.384 1.72183C113.977 1.73375 114.047 1.69308 114.518 1.70913C115.453 1.74096 114.052 1.73315 113.672 1.73843C112.31 1.75749 111.905 1.74194 109.977 1.74722C109.282 1.74909 108.46 1.76861 108.138 1.76968C107.935 1.77035 106.02 1.70261 105.962 1.80874C105.217 1.79845 104.048 1.72839 103.28 1.73159C102.591 1.73452 102.81 1.77213 102.746 1.77359C102.647 1.77587 101.814 1.77315 101.532 1.77847C101.202 1.78475 101.367 1.79899 100.843 1.80484C99.5398 1.81934 99.5732 1.781 99.4394 1.77847C97.8841 1.74964 98.5639 1.80432 98.2197 1.80874C97.8987 1.81277 93.3947 1.792 92.4463 1.80581C92.832 1.79812 93.2178 1.79007 93.6035 1.78238C92.9147 1.75848 92.1841 1.7975 92.168 1.75503C92.025 1.82402 90.6024 1.77766 90.1748 1.77945C90.0065 1.7802 90.0196 1.79163 89.8086 1.79214C88.9838 1.79421 87.1241 1.78517 86.6768 1.79116C84.742 1.81696 89.6895 1.85986 90.0791 1.86245C89.2994 1.86169 84.8885 1.87697 86.916 1.91031C87.2295 1.91542 87.785 1.88418 87.9609 1.88296C89.1517 1.87498 88.2152 1.90278 88.3086 1.90542C88.468 1.90965 89.251 1.88369 89.458 1.88687C89.5271 1.88789 89.0828 1.9127 90.2187 1.91324C89.6595 1.93762 86.4688 1.91729 86.0478 1.923C85.8986 1.92505 86.8337 1.97757 84.1006 1.92691C84.1322 1.93173 84.1637 1.93673 84.1953 1.94156C82.6735 1.94355 81.1517 1.94542 79.6299 1.94741C79.7954 1.93626 80.6493 1.91434 79.5732 1.91909C78.954 1.92185 79.412 1.94669 79.3555 1.94741C78.7957 1.95425 68.9598 1.94562 67.0518 1.94839C66.403 1.94929 64.5939 1.9695 64.456 1.96988C63.6315 1.97187 60.7132 1.95827 60.1299 1.96109C59.7663 1.96289 60.1113 1.98353 59.7871 1.98257C59.4853 1.98164 59.7971 1.96195 59.708 1.96109C58.965 1.95381 53.321 1.98002 51.9805 1.96109C52.8 1.96676 56.8869 1.92641 56.8047 1.91226C56.7773 1.91019 55.7929 1.89509 55.5889 1.90249C55.2503 1.88511 54.0873 1.93828 53.4551 1.92788C53.385 1.9266 53.6634 1.89713 52.5371 1.89175C52.1484 1.88991 51.1299 1.91281 50.1055 1.88687C48.6211 1.89932 40.825 1.86083 40.29 1.89273C40.2758 1.89442 41.3714 1.90602 40.6309 1.91909C39.6447 1.93649 40.5297 1.87729 39.3809 1.87222C39.2076 1.87145 36.009 1.87738 35.9043 1.88101C34.9369 1.91388 37.7282 1.92796 37.6914 1.93179C37.594 1.94141 35.2741 1.94675 35.1777 1.94449C35.0879 1.94212 36.9813 1.89866 34.706 1.91519C34.9667 1.9204 35.2277 1.92561 35.4883 1.93081C34.4183 1.94096 34.3158 1.91118 34.0566 1.90933C33.2507 1.9035 32.3782 1.9493 31.0869 1.89273C30.7477 1.87778 31.3081 1.86091 31.2705 1.85855C30.8603 1.83834 30.3365 1.89203 29.7197 1.85171C29.6743 1.84869 31.1076 1.82443 28.5996 1.82437C28.7723 1.82823 28.9455 1.83222 29.1182 1.83609C28.7644 1.84472 26.2236 1.84985 25.8818 1.84781C24.8842 1.84184 25.7542 1.81422 24.751 1.81753C25.3939 1.85553 22.3493 1.86091 22.5185 1.82827C22.091 1.86933 19.5003 1.83706 18.2822 1.83609C17.5135 1.8355 15.9458 1.8538 15.7012 1.85171C15.4037 1.84914 15.4938 1.82086 14.957 1.8146C14.8038 1.81282 13.2038 1.83387 11.7998 1.80484C11.5277 1.79924 10.9562 1.7513 11.4619 1.73941C12.3228 1.71917 13.9468 1.75687 13.9443 1.72964C13.9198 1.69957 11.7138 1.71696 11.1201 1.71304C8.37964 1.69489 9.96181 1.66316 9.8916 1.65347C9.7088 1.62995 8.21092 1.63019 8.14843 1.62808C7.89104 1.61871 8.9449 1.60042 8.96679 1.58609C8.98613 1.5674 7.5429 1.53379 7.87109 1.52749C8.34105 1.51856 9.66784 1.54641 9.75195 1.54507C10.846 1.52693 9.34521 1.48327 8.93163 1.46206C8.80739 1.45554 9.30602 1.44542 9.20214 1.44351C7.61541 1.41447 8.86731 1.50416 7.81249 1.4982C6.90002 1.49302 8.0087 1.46613 8.04589 1.46304C7.99714 1.46132 6.8734 1.4594 6.69726 1.44937C6.61041 1.44434 9.53537 1.38916 9.41503 1.36441C8.4812 1.36986 7.54711 1.37556 6.61328 1.38101C6.54086 1.34878 7.88357 1.37262 8.02246 1.36929C8.30165 1.36261 7.52219 1.34629 7.55566 1.33609C7.57361 1.3296 8.48868 1.30657 7.6621 1.29702C7.37792 1.29373 6.78113 1.31623 5.74609 1.29312C9.34785 1.2636 6.85268 1.24498 6.74609 1.23355C6.64208 1.22212 8.36164 1.19559 6.27441 1.20034C6.18392 1.13756 6.31926 1.18011 6.9121 1.16909C7.63869 1.15553 5.95979 1.13485 8.61523 1.15054C8.46272 1.12118 6.33008 1.12359 6.21679 1.12124C6.11928 1.11912 6.59302 1.10467 6.4248 1.09976C4.42428 1.04297 5.79715 1.06861 5.21874 1.03238C5.16721 1.02913 3.27585 1.01618 4.71484 1.01089C7.33802 1.00129 8.43515 1.04234 8.87597 0.953274C6.93569 0.914586 4.58395 0.971831 3.99413 0.972805C3.09277 0.974201 4.02565 0.956426 3.91601 0.951321C3.87748 0.949681 3.10369 0.950789 3.08886 0.949368C2.53412 0.881438 6.55234 0.948485 7.81738 0.936673C7.4783 0.9265 7.13888 0.916572 6.7998 0.906399C7.25975 0.905992 7.71973 0.905829 8.17968 0.905423C5.9885 0.884976 8.10295 0.896948 8.64941 0.841946C8.76936 0.829654 7.33356 0.850876 8.9746 0.816555C7.76327 0.808626 8.14944 0.798124 7.05273 0.813626C7.08104 0.791579 9.54905 0.766345 10.5225 0.755032C7.08366 0.730256 9.04411 0.81149 6.07128 0.768704C5.52098 0.795983 6.93892 0.790566 6.82324 0.795071C6.40788 0.811242 5.43454 0.785196 4.26074 0.841946C4.07093 0.851285 4.87799 0.88044 3.68163 0.879055C3.54933 0.878841 2.79241 0.85366 2.79687 0.851712C2.89799 0.832511 3.6534 0.840195 3.68456 0.83218C3.70837 0.824691 2.87106 0.829394 2.86816 0.827298C2.84306 0.803294 3.5706 0.818223 3.46484 0.810696C3.23279 0.794282 0.210395 0.741833 4.16113 0.756985C0.877454 0.784181 3.74078 0.784034 5.01953 0.773587C5.34545 0.770964 5.4281 0.756112 5.89257 0.751126C6.49012 0.74467 7.18961 0.751803 7.49902 0.749173C7.83166 0.746266 5.94224 0.71267 8.67578 0.722805C7.28459 0.689023 4.82653 0.725041 3.45995 0.701321C0.703732 0.653396 5.38231 0.64249 5.87011 0.637844C5.99999 0.636586 5.56479 0.617549 5.65136 0.61636C5.79463 0.614545 8.44915 0.623623 8.71093 0.607571C8.97016 0.591576 7.73724 0.60769 7.65527 0.590969C7.69029 0.579625 10.779 0.560472 9.06933 0.552883C7.87412 0.547614 5.67155 0.592708 5.2998 0.544094C7.05761 0.540066 8.81542 0.535427 10.5732 0.531399C9.61115 0.512886 8.64861 0.494248 7.68652 0.475735C9.65965 0.469863 11.3662 0.491499 13.2402 0.464993C8.73867 0.405686 14.6977 0.417509 14.7676 0.410305C14.7895 0.405987 13.0166 0.35759 12.7314 0.348782C14.302 0.330257 19.0747 0.321323 16.2832 0.261868C16.7887 0.275231 18.0098 0.242081 18.001 0.239407C17.8451 0.213142 15.1689 0.229914 15.6045 0.206204C16.1104 0.178674 16.8194 0.216014 17.5977 0.21304C21.5916 0.197489 20.4962 0.0604803 24.501 0.0821803C24.4213 0.0772973 24.3414 0.0724149 24.2617 0.0675319C28.6147 0.075304 32.9683 0.0831973 37.3213 0.0909694C39.0247 0.0490958 43.5571 0.0238364 45.7832 0.0284694C46.232 0.0293788 48.4326 0.050984 48.5986 0.0548366C48.9043 0.0622131 47.2155 0.0654159 47.9785 0.0792506C48.1399 0.0820926 51.866 0.0909619 51.5996 0.0675319C51.1819 0.0648246 49.8769 0.0769364 49.6621 0.0714381C48.1598 0.0320334 59.6463 0.0638783 60.2158 0.0480006C59.9614 0.0403914 59.7065 0.0321724 59.4521 0.0245631C60.1769 0.0283063 60.9021 0.0325387 61.6269 0.0362819ZM47.9434 1.91031C48.0231 1.9127 48.6078 1.97027 47.4219 1.95327C46.5458 1.94064 47.2252 1.88928 47.9434 1.91031ZM39.0537 1.92984C39.733 1.95018 37.4498 1.94651 38.2334 1.92886C38.2739 1.9282 39.024 1.92904 39.0537 1.92984ZM45.6865 1.92788C45.676 1.94232 44.6765 1.931 44.2978 1.93277C44.3968 1.91697 45.3005 1.9241 45.6865 1.92788ZM82.623 1.90249C81.6573 1.90468 82.3566 1.95075 82.957 1.93179C82.9934 1.93049 82.6871 1.90247 82.623 1.90249ZM67.2217 1.92788C67.1992 1.91583 64.1164 1.91655 63.9033 1.93277C64.3996 1.92582 67.1856 1.93905 67.2217 1.92788ZM28.3184 1.91812C27.8891 1.94131 26.822 1.92395 26.1748 1.92984C26.8893 1.92592 27.6038 1.92203 28.3184 1.91812ZM75.2803 1.91128C75.1987 1.90916 74.125 1.91216 74.1465 1.923C74.6764 1.93739 75.6389 1.92101 75.2803 1.91128ZM92.4707 1.88491C92.7535 1.89164 91.7443 1.90975 91.8447 1.91226C92.0549 1.91713 92.221 1.91966 92.3545 1.92007C91.4578 1.92585 90.5264 1.9282 90.4355 1.92398C90.0122 1.90398 91.2727 1.91243 91.2988 1.91128C91.3568 1.90846 90.5458 1.83902 92.4707 1.88491ZM101.343 1.85855C101.387 1.85961 101.189 1.89007 101.719 1.88784C102.146 1.886 101.508 1.85462 102.34 1.85952C103.124 1.86412 102.197 1.88403 102.131 1.88784C102.231 1.88986 103.529 1.87687 103.488 1.89468C103.457 1.90786 102.066 1.89872 101.722 1.90152C101.281 1.90512 101.815 1.92675 101.078 1.92202C100.616 1.91907 100.872 1.88105 100.774 1.87906C100.692 1.87748 99.0741 1.89925 99.7109 1.85952H99.708C99.8929 1.84814 101.074 1.85386 101.343 1.85855ZM30.8506 1.90054C31.3061 1.91247 29.9548 1.92787 29.4424 1.91226C29.4639 1.90008 30.7757 1.89871 30.8506 1.90054ZM55.5889 1.90249C55.645 1.90538 55.681 1.91073 55.6855 1.91812C55.5378 1.91004 55.5242 1.90484 55.5889 1.90249ZM93.4297 1.88687C94.7623 1.89656 93.7821 1.90964 92.5976 1.91812C92.9736 1.91083 92.9822 1.88363 93.4297 1.88687ZM83.0791 1.88589C84.2529 1.8939 83.0149 1.90142 83.0332 1.90738C83.0837 1.92442 85.0529 1.9078 85.4893 1.91519C85.831 1.88459 84.1843 1.91266 83.8643 1.90542H83.8613C83.7655 1.90316 85.2773 1.83492 83.0791 1.88589ZM114.864 1.87613C114.597 1.89406 113.75 1.88792 113.178 1.88687C113.445 1.86894 114.292 1.87507 114.864 1.87613ZM263.687 1.85074C263.76 1.85141 264.763 1.87166 264.527 1.87906C260.608 1.89564 260.101 1.82187 263.687 1.85074ZM232.55 1.83609C232.732 1.83908 233.402 1.8708 232.636 1.8771C232.656 1.83867 231.474 1.824 230.895 1.85952C230.525 1.82769 231.747 1.82294 232.55 1.83609ZM96.3945 1.86343C96.0098 1.88088 94.739 1.873 94.1826 1.86636C94.5706 1.84514 95.765 1.86024 96.3945 1.86343ZM251.649 1.84097C251.237 1.83856 250.958 1.86591 251.028 1.86831C251.348 1.87888 252.12 1.85674 251.649 1.84097ZM115.197 1.85464C115.166 1.86813 113.949 1.87054 113.786 1.86636C113.541 1.85991 114.812 1.84824 115.197 1.85464ZM243.603 1.85757C243.477 1.87155 244.83 1.86703 244.999 1.84976C244.629 1.84735 243.705 1.84638 243.603 1.85757ZM313.824 1.82534C313.865 1.83049 312.438 1.86673 311.803 1.85757C310.596 1.84002 313.774 1.82179 313.824 1.82534ZM255.56 1.82632C256.723 1.85259 255.437 1.82724 255.481 1.85464C256.266 1.85564 258.219 1.8575 256.877 1.83023C256.616 1.82495 255.926 1.82811 255.56 1.82632ZM254.483 1.81656C254.358 1.82554 253.518 1.85471 254.244 1.85269C254.58 1.85171 255.122 1.81938 254.483 1.81656ZM308.842 1.8312C308.914 1.83347 308.962 1.83525 308.989 1.83706C309.165 1.82928 310.071 1.82813 310.176 1.84781C309.905 1.84618 309.165 1.84802 309.077 1.84585C309.04 1.84493 309.012 1.8438 308.993 1.84292C308.674 1.86001 305.156 1.8427 304.956 1.83804C303.912 1.8135 308.704 1.8269 308.842 1.8312ZM297.015 1.81265C298.21 1.77646 298.423 1.83789 298.32 1.83999C297.019 1.86518 297.865 1.81974 297.827 1.81753C297.736 1.81399 296.811 1.83516 297.019 1.81265C297.017 1.81265 297.016 1.81265 297.015 1.81265ZM304.424 1.83023C305.246 1.85091 302.405 1.84574 303.329 1.82827C303.384 1.82749 304.383 1.82926 304.424 1.83023ZM253.909 1.82339C253.742 1.81911 249.481 1.80289 249.733 1.83706C250.096 1.83302 254.943 1.85076 253.909 1.82339ZM106.047 1.81656C106.766 1.82268 106.061 1.8452 105.583 1.83706C105.544 1.83626 105.413 1.81115 106.047 1.81656ZM222.037 1.8146C222.788 1.81488 221.969 1.84714 221.567 1.83511C221.419 1.83064 221.848 1.81456 222.037 1.8146ZM88.251 1.81265C88.277 1.81355 88.2239 1.83339 88.1934 1.83413C87.4125 1.85186 87.574 1.79226 88.251 1.81265ZM229.438 1.78531C229.332 1.78986 229.227 1.79442 229.121 1.79898C233.013 1.81432 229.388 1.80595 228.435 1.81167C228.072 1.81385 228.375 1.83068 228.048 1.83316H228.045C225.451 1.85271 226.066 1.75077 229.438 1.78531ZM221.72 1.77847C220.394 1.80845 218.668 1.80343 221.016 1.83413C217.584 1.84007 219.01 1.81117 218.875 1.80874C218.713 1.80605 218.188 1.81577 218.081 1.81265C215.584 1.74005 220.352 1.78792 221.72 1.77847ZM226.295 1.82241C225.747 1.84722 223.712 1.82706 224.671 1.81265C224.817 1.81057 225.903 1.82482 226.295 1.82241ZM27.4922 1.81558C26.9008 1.81418 25.724 1.80686 26.085 1.8273C26.1243 1.82902 27.4684 1.8268 27.4922 1.81558ZM241.521 1.80777C241.389 1.80538 238.146 1.80294 239.268 1.82437C239.608 1.83083 242.564 1.82894 241.521 1.80777ZM256.962 1.81753C256.888 1.8334 258.244 1.82492 258.363 1.80972C258.091 1.80952 256.985 1.81293 256.962 1.81753ZM24.5098 1.79605C24.4319 1.79403 22.626 1.79736 22.8242 1.80679C23.201 1.82462 24.7761 1.803 24.5098 1.79605ZM108.663 1.77066C108.814 1.76994 109.014 1.79093 109.066 1.79116C109.193 1.79145 111.952 1.78361 110.896 1.8107C110.718 1.81523 106.746 1.80459 106.228 1.80191C106.028 1.77293 107.725 1.80097 108.139 1.798C108.211 1.79743 108.259 1.7727 108.662 1.77066H108.663ZM252.201 1.74136C251.875 1.74587 252.878 1.77225 252.654 1.77749C252.51 1.78075 251.781 1.77104 251.548 1.77945C251.483 1.78216 252.226 1.8069 252.441 1.80581C252.747 1.80435 252.451 1.78447 252.784 1.78433C253.892 1.7839 254.874 1.79833 255.912 1.798C256.006 1.79793 255.279 1.78413 256.079 1.78433C256.204 1.78438 256.946 1.805 257.901 1.80191C260.015 1.73711 261.566 1.80086 264.248 1.77749C264.147 1.77139 262.143 1.75468 262.023 1.75406C259.782 1.7434 255.767 1.74248 253.419 1.74234C252.817 1.74228 253.108 1.75549 252.85 1.75601C252.645 1.75638 252.888 1.73184 252.201 1.74136ZM292.921 1.79409C292.926 1.80649 291.613 1.80772 291.512 1.80581C290.819 1.79278 292.442 1.78834 292.921 1.79409ZM25.9043 1.79116C26.1266 1.81404 27.1896 1.79629 27.8066 1.80191C27.5248 1.77654 26.5357 1.79247 25.9043 1.79116ZM275.547 1.78726C275.442 1.79723 276.859 1.80352 276.926 1.78628C276.61 1.78726 275.631 1.77968 275.547 1.78726ZM125.066 1.77945C125.747 1.7998 123.463 1.79612 124.246 1.77847C124.278 1.77779 125.032 1.77865 125.066 1.77945ZM142.46 1.78335C143.037 1.78022 143.619 1.77162 143.813 1.79214C143.445 1.789 142.394 1.79763 142.46 1.78335ZM169.535 1.77554C169.412 1.78751 167.675 1.80179 167.588 1.78238C167.474 1.75558 169.207 1.77312 169.535 1.77554ZM290.077 1.72476C290.188 1.72799 290.542 1.81225 289.375 1.78042C289.165 1.7747 289.987 1.75487 288.564 1.74527C289.627 1.74685 289.403 1.70629 290.077 1.72476ZM231.672 1.77456C231.542 1.78776 230.393 1.78501 229.987 1.78628C230.258 1.76849 231.101 1.77313 231.672 1.77456ZM162.647 1.76968C163.47 1.79037 160.629 1.7852 161.553 1.76773C161.602 1.76693 162.603 1.76871 162.647 1.76968ZM136.471 1.75015C136.833 1.73386 139.212 1.74749 139.745 1.76382C139.232 1.78767 136.022 1.77052 136.471 1.75015ZM286.366 1.76773C286.22 1.78146 284.272 1.76724 284.192 1.75699C284.95 1.75614 285.67 1.76068 286.366 1.76773ZM267.228 1.74722C266.593 1.7418 266.723 1.76689 266.763 1.76773C267.241 1.77587 267.946 1.75335 267.228 1.74722ZM25.1777 1.75406C25.356 1.77199 26.586 1.7662 27.081 1.76382C26.8608 1.74111 25.7923 1.75946 25.1777 1.75406ZM218.539 1.72866C218.59 1.74388 215.523 1.77012 215.406 1.76675C214.609 1.74214 217.854 1.71282 218.539 1.72866ZM220.172 1.73941C220.477 1.73398 221.188 1.75117 220.938 1.76187C220.618 1.77556 220.095 1.74108 220.172 1.73941ZM93.9424 1.75113C93.8765 1.73341 92.5163 1.75445 92.8057 1.76284C92.9902 1.76817 93.9805 1.76217 93.9424 1.75113ZM247.543 1.72476C247.41 1.72204 245.616 1.74079 246.356 1.75894C246.87 1.77154 246.953 1.7454 247.073 1.74527C247.208 1.74535 250.088 1.77682 247.543 1.72476ZM199.425 1.75113C199.136 1.76213 197.509 1.76574 197.221 1.75113C197.897 1.74428 198.716 1.75162 199.425 1.75113ZM99.2002 1.74624C99.0351 1.73905 94.5589 1.73484 97.1016 1.75699C97.2499 1.75824 99.6994 1.76804 99.2002 1.74624ZM275.146 1.73257C275.035 1.74835 276.455 1.74416 276.497 1.74234C276.742 1.72939 275.511 1.72569 275.146 1.73257ZM201.133 1.73257C201.047 1.74461 199.656 1.74576 199.479 1.73355C199.887 1.72614 200.628 1.73343 201.133 1.73257ZM170.819 1.71988C171.624 1.72698 172.613 1.72361 172.642 1.70913C172.658 1.71144 172.698 1.71351 172.764 1.71597C172.831 1.71838 173.698 1.71192 174.075 1.71695C176.331 1.7468 165.355 1.73412 171.718 1.69253C171.418 1.70156 171.119 1.71085 170.819 1.71988ZM133.251 1.71597C132.791 1.69805 131.503 1.72062 131.837 1.72769C132.07 1.73253 133.711 1.73402 133.251 1.71597ZM129.715 1.69449C129.427 1.6918 129.059 1.72047 129.092 1.72183C129.385 1.73238 130.2 1.71058 129.715 1.69449ZM150.951 1.70523C150.814 1.70203 149.561 1.71435 149.523 1.72378C150.246 1.73372 151.577 1.72009 150.951 1.70523ZM286.363 1.66714C285.934 1.65887 284.565 1.68028 284.267 1.69937C284.211 1.69568 284.061 1.6905 283.787 1.68472H283.789C283.41 1.67701 272.355 1.66848 279.775 1.70523C280.008 1.70641 279.691 1.68951 280.637 1.69253C280.699 1.69279 280.73 1.70649 280.923 1.70718C281.367 1.70866 283.733 1.71746 284.209 1.7062C284.214 1.70875 284.244 1.71179 284.309 1.71402C284.892 1.7342 286.697 1.67352 286.363 1.66714ZM99.0615 1.69546C98.5458 1.68531 97.2388 1.7049 97.6338 1.71499C97.8763 1.72119 99.6557 1.70712 99.0615 1.69546ZM152.308 1.71499C152.706 1.72103 154.032 1.71439 153.444 1.7023C153.191 1.69713 152.393 1.70269 152.308 1.71499ZM300.651 1.69351C300.813 1.69968 300.312 1.71628 300.049 1.71402C299.578 1.70983 300.132 1.67413 300.651 1.69351ZM306.463 1.6896C306.143 1.71117 305.935 1.71446 305.033 1.70913C306.367 1.70305 305.13 1.68325 306.463 1.6896ZM126.935 1.70034C126.564 1.68209 125.528 1.68295 125.836 1.70132C125.866 1.70302 126.782 1.71381 126.935 1.70034ZM132.505 1.6857C132.488 1.69912 134.043 1.70387 134.11 1.7023C135.017 1.67865 133.157 1.68488 132.505 1.6857ZM88.6211 1.67691C88.5399 1.67834 89.0648 1.71314 89.3867 1.69937C89.636 1.68867 88.9261 1.67149 88.6211 1.67691ZM309.524 1.68081C310.024 1.68084 310.728 1.68072 310.858 1.69741C310.523 1.69485 309.514 1.69308 309.524 1.68081ZM287.72 1.67691C287.679 1.67586 286.426 1.66842 286.596 1.6857C286.846 1.71109 288.073 1.68633 287.72 1.67691ZM320.571 1.67984C319.98 1.69947 318.63 1.69968 317.769 1.69644C317.754 1.67061 320.016 1.6859 320.571 1.67984ZM89.7344 1.67495C89.4325 1.68942 90.9578 1.69743 91.0557 1.69546C91.6163 1.68354 90.326 1.64664 89.7344 1.67495ZM15.4619 1.67105C15.1326 1.6783 16.3609 1.7039 16.5215 1.68667C16.6199 1.67584 15.673 1.66642 15.4619 1.67105ZM116.979 1.60659C118.62 1.68032 118.448 1.62289 118.591 1.6232C118.899 1.624 119.615 1.64403 120.195 1.64077C119.53 1.64907 118.865 1.65787 118.2 1.66616C118.726 1.67149 123.291 1.69863 123.387 1.68667C123.521 1.66969 122.087 1.6745 122.045 1.673C121.984 1.67078 121.76 1.62402 121.627 1.62222C121.406 1.61934 117.59 1.61836 116.979 1.60659ZM143.995 1.66616C144.37 1.67179 144.477 1.69018 144.651 1.6857C144.71 1.68409 144.721 1.66687 144.923 1.66226C144.614 1.66364 144.304 1.66478 143.995 1.66616ZM115.726 1.66128C116.08 1.67609 114.42 1.69083 114.04 1.673C113.575 1.65114 115.659 1.65883 115.726 1.66128ZM131.717 1.66909C131.638 1.66781 130.041 1.66186 130.054 1.67398C130.477 1.68322 132.616 1.68506 131.717 1.66909ZM145.173 1.66128C145.734 1.66337 146.794 1.68123 146.676 1.65445H146.673L145.173 1.66128ZM92.9756 1.63784C91.934 1.59495 92.4274 1.6494 93.3496 1.66324C93.6286 1.64399 93.1464 1.64482 92.9756 1.63784ZM89.6426 1.60659C89.3528 1.59888 86.3666 1.60733 86.8223 1.63003C86.9867 1.63807 88.7013 1.61772 88.7803 1.61929C88.8992 1.62165 88.353 1.64671 89.2676 1.64175C89.2169 1.6332 89.7395 1.60923 89.6426 1.60659ZM92.1133 1.6105C91.0783 1.57788 90.8457 1.63866 91.624 1.63882C91.9282 1.63893 92.261 1.61521 92.1133 1.6105ZM96.3408 1.61636C95.968 1.61065 94.9765 1.60221 94.293 1.62222C95.208 1.62393 96.123 1.62539 97.0381 1.6271C97.1436 1.61577 96.6672 1.62137 96.3389 1.61636H96.3408ZM327.944 1.50601C328.181 1.51991 327.16 1.53314 326.792 1.52554C325.97 1.50848 327.864 1.50182 327.944 1.50601ZM8.15722 1.10659C8.66302 1.12311 9.169 1.13988 9.6748 1.1564C10.068 1.11854 9.28784 1.13168 9.03808 1.12417C8.80968 1.11736 8.66004 1.09487 8.15722 1.10659ZM7.71093 0.965969C8.33367 0.992204 4.94272 1.01716 4.33007 0.99136C5.00675 0.979372 6.49131 0.992973 7.10644 0.985501C7.17764 0.984553 6.78792 0.927119 7.71093 0.965969ZM2.56347 0.725735C3.34602 0.742982 1.37565 0.758414 1.16406 0.733548C1.19501 0.728926 2.41838 0.722553 2.56347 0.725735ZM6.40917 0.732571C6.44788 0.743405 5.36876 0.746913 5.27538 0.745266C4.67223 0.73397 6.00988 0.726076 6.40917 0.732571ZM318.464 0.682766C317.81 0.643209 317.224 0.728225 318.23 0.711087C318.278 0.710283 318.489 0.684934 318.464 0.682766ZM2.42382 0.674954C3.02808 0.686255 1.69045 0.694145 1.29101 0.687649C1.25396 0.676845 2.32854 0.67332 2.42382 0.674954ZM318.003 0.58804C317.134 0.559583 317.44 0.655479 317.549 0.659329C317.996 0.67453 319.529 0.637401 319.843 0.628079C317.548 0.642417 318.412 0.601455 318.003 0.58804ZM309.105 0.615383C308.672 0.611961 307.383 0.603281 307.167 0.618313C307.64 0.615592 308.922 0.630838 309.105 0.615383ZM308.125 0.570462C307.448 0.550038 307.285 0.60867 308.065 0.590969C308.096 0.590287 308.149 0.571803 308.125 0.570462ZM304.317 0.548977C303.873 0.525308 303.366 0.58258 304.086 0.584133C304.299 0.584456 304.364 0.551812 304.317 0.548977ZM316.916 0.485501C316.28 0.475337 315.46 0.517101 316.818 0.521633C316.341 0.52794 315.864 0.533881 315.387 0.540188C317.166 0.563317 317.036 0.505626 317.546 0.507962C318.26 0.511325 318.204 0.558557 318.061 0.573391C318.646 0.544452 321.133 0.544722 322.57 0.539212C321.307 0.527067 319.257 0.505892 318.011 0.498196C317.655 0.495969 317.309 0.508431 317.006 0.506985C316.519 0.504593 316.951 0.486185 316.918 0.485501H316.916ZM0.692377 0.499173C2.43715 0.523369 1.16933 0.555681 4.81933 0.506985C3.28588 0.541459 4.73389 0.531165 4.43456 0.545071C4.19379 0.556042 3.29568 0.54734 3.81835 0.569485C3.1317 0.545395 0.153006 0.551889 0.013666 0.548001H0.0165957C-0.0623413 0.545527 0.136648 0.491508 0.692377 0.499173ZM309.1 0.464016C308.664 0.39378 308.493 0.504639 307.637 0.446438C306.497 0.530972 310.786 0.446326 311.306 0.517727C306.647 0.509431 314.382 0.588478 311.131 0.481594C313.81 0.520388 312.009 0.468846 312.423 0.455227C312.866 0.440737 314.38 0.455993 314.303 0.429837H314.301C313.374 0.431668 312.447 0.433865 311.521 0.435696C312.427 0.492117 310.534 0.474829 309.892 0.42886C309.628 0.440331 309.363 0.452546 309.1 0.464016ZM314.345 0.516751C314.254 0.515459 312.241 0.523017 312.367 0.534329C312.636 0.541553 315.497 0.533255 314.345 0.516751ZM323.216 0.504055C322.492 0.503918 321.373 0.493523 320.979 0.514798C321.702 0.514941 322.822 0.525346 323.216 0.504055ZM307.001 0.474758C306.063 0.453294 306.506 0.520882 307.201 0.503079C307.241 0.502029 307.044 0.475737 307.001 0.474758ZM5.14941 0.485501C4.89437 0.501047 2.03894 0.510492 2.10644 0.49136C2.16918 0.474621 4.7005 0.485645 5.14941 0.485501ZM324.489 0.441555C323.049 0.381374 321.095 0.45088 320.881 0.449368C320.668 0.44782 321.002 0.421753 320.953 0.421048C320.839 0.419581 318.578 0.422149 318.464 0.423977C318.385 0.425405 318.795 0.462133 318.327 0.473782C319.241 0.452782 323.386 0.466146 323.604 0.462063C323.771 0.458791 322.515 0.419353 324.487 0.441555H324.489ZM320.346 0.441555C320.912 0.457044 319.322 0.458992 318.938 0.453274C318.083 0.440478 320.273 0.439719 320.346 0.441555ZM316.521 0.426907C316.34 0.423434 314.705 0.42045 314.562 0.437649C315.338 0.460014 316.933 0.435006 316.521 0.426907ZM296.626 0.433743C297.052 0.431547 298.222 0.444914 298.289 0.429837C297.864 0.432046 296.694 0.418694 296.626 0.433743ZM12.1523 0.347805C12.1782 0.35784 10.8103 0.360587 10.7441 0.359524C10.0373 0.34691 11.6742 0.341759 12.1523 0.347805ZM306.842 0.330227C306.586 0.325656 301.449 0.336841 300.729 0.343899C301.434 0.355301 306.529 0.3563 306.76 0.350735C306.827 0.349029 306.874 0.330948 306.842 0.330227ZM317.959 0.323391C318.43 0.301188 318.738 0.32794 318.798 0.328274C319.381 0.331667 320.589 0.326441 320.324 0.347805C319.296 0.339178 317.021 0.367467 317.959 0.323391ZM313.769 0.321438C313.029 0.354508 312.433 0.329518 311.44 0.331204C311.172 0.331698 311.244 0.344854 311.215 0.344876C310.751 0.345507 311.098 0.329502 310.812 0.329251C310.632 0.329142 306.876 0.348643 307.416 0.323391C307.801 0.305452 312.942 0.321408 313.769 0.321438ZM301.88 0.293118C295.695 0.295807 299.391 0.318903 302.004 0.30679C301.911 0.304176 302.027 0.293102 301.88 0.293118ZM321.855 0.293118C322.821 0.318265 318.481 0.312197 318.229 0.307766C318.518 0.295049 321.725 0.28974 321.855 0.293118ZM296.172 0.296048C296.436 0.300801 299.086 0.304577 298.109 0.292141C298.018 0.290992 296.209 0.283901 296.172 0.296048ZM306.944 0.294094C307.497 0.255637 310.051 0.281758 308.304 0.30093C308.137 0.302675 307.429 0.285637 306.944 0.294094ZM299.054 0.251126C299.01 0.251419 299.436 0.274615 298.583 0.271633C298.512 0.271352 298.379 0.245328 297.307 0.255032C297.089 0.257031 296.752 0.274449 296.776 0.27554C297.894 0.317118 301.256 0.237471 299.054 0.251126ZM318.907 0.258938C319.068 0.266202 318.768 0.285892 318.287 0.286282C318.114 0.275094 318.531 0.242158 318.907 0.258938ZM12.3994 0.204251H12.3965C13.2864 0.208816 12.7357 0.225209 12.7773 0.225735C14.6718 0.250334 14.17 0.212656 14.4658 0.208157C15.1014 0.198469 14.9993 0.243892 16.0713 0.224758C14.2993 0.253019 15.9127 0.241539 15.9629 0.257962C16.1588 0.324788 13.6032 0.226374 12.7197 0.240383C12.5966 0.242329 13.5049 0.263595 13.1894 0.26968C12.1635 0.289364 8.98514 0.186796 12.3994 0.204251ZM289.907 0.262844C290.019 0.275355 292.23 0.283346 292.339 0.281399C293.396 0.261271 290.082 0.257709 289.907 0.262844ZM319.198 0.256008C319.612 0.236348 322.741 0.255421 321.912 0.271633C321.779 0.274234 318.591 0.284703 319.198 0.256008ZM171.603 0.203274C171.442 0.209878 172.586 0.234164 172.917 0.226712C173.669 0.209679 171.927 0.190033 171.603 0.203274ZM160.688 0.153469C159.793 0.156946 158.851 0.22797 159.964 0.216946C160.083 0.215614 160.79 0.163312 160.688 0.153469ZM219.41 0.190579C218.477 0.165198 218.532 0.211752 219.218 0.211087C219.46 0.210851 219.44 0.191382 219.41 0.190579ZM183.771 0.196438C183.677 0.194791 182.597 0.198292 182.637 0.209133C183.036 0.215638 184.375 0.207741 183.771 0.196438ZM305.016 0.189602C304.552 0.208973 303.24 0.203852 302.486 0.20718C302.408 0.182142 304.478 0.19415 305.016 0.189602ZM15.9365 0.174954C16.016 0.176918 14.8463 0.223109 14.5185 0.189602C14.2675 0.163835 15.7275 0.170449 15.9365 0.174954ZM258.069 0.189602C257.602 0.184553 255.612 0.186716 256.387 0.201321C256.509 0.203561 258.034 0.203305 258.069 0.189602ZM213.346 0.186673C212.863 0.189898 211.609 0.18389 211.389 0.197415C211.98 0.194616 213.504 0.213582 213.346 0.186673ZM168.344 0.182766C167.606 0.154767 166.348 0.156913 166.659 0.193508C168.05 0.19105 166.487 0.161232 168.344 0.182766ZM222.818 0.153469C222.432 0.151356 222.136 0.186831 222.178 0.188626C222.598 0.204381 223.203 0.167145 222.818 0.153469ZM193.744 0.182766C193.722 0.167745 192.48 0.174074 192.646 0.183743C192.701 0.186966 193.745 0.194502 193.744 0.182766ZM290.433 0.170071C290.681 0.193098 288.821 0.183364 288.749 0.18179C288.181 0.168082 289.919 0.154068 290.433 0.170071ZM233.562 0.162258C233.62 0.139966 231.679 0.152569 232.444 0.171048C232.635 0.175648 233.534 0.169661 233.562 0.162258ZM261.895 0.103665C262.016 0.107419 261.447 0.126449 261.545 0.131008C261.604 0.13359 263.626 0.144476 263.719 0.142727C263.819 0.140728 263.701 0.117099 263.803 0.114407C263.919 0.111432 265.162 0.131755 265.813 0.131985C267.04 0.132377 267.174 0.112547 267.274 0.112454C267.568 0.112321 268.062 0.12712 268.656 0.127102C271.654 0.126942 276.24 0.10915 278.616 0.151516C276.501 0.134502 274.485 0.152798 272.381 0.158352C272.997 0.116641 269.285 0.19085 271.456 0.142727C270.455 0.153165 261.816 0.161633 261.08 0.152493H261.077C260.853 0.149527 260.965 0.0747865 261.895 0.103665ZM172.047 0.0411647H172.05C172.451 0.0485569 171.996 0.0612195 172.067 0.0655788C172.094 0.0673512 173.346 0.0918528 172.307 0.0958522C170.722 0.101985 172.157 0.0592883 171.312 0.0587428C171.209 0.0587019 169.609 0.0850293 169.702 0.0909694C169.721 0.0915255 170.194 0.0865725 170.272 0.0890163C170.572 0.0982982 170.426 0.113664 170.469 0.114407C170.608 0.116303 173.138 0.0892289 173.506 0.112454C173.615 0.119951 169.48 0.137782 169.311 0.133938C169.208 0.131484 169.25 0.0883954 169.145 0.0841335C169.083 0.0820904 167.42 0.0978653 167.203 0.0938991C167.14 0.0927472 167.092 0.0910164 167.057 0.0899928C167.309 0.103376 165.802 0.103094 165.843 0.0880397C165.869 0.082117 166.902 0.085033 166.947 0.0860866C166.963 0.0865231 166.978 0.0876217 166.991 0.0880397C166.779 0.0717239 170.301 0.0723058 169.54 0.0480006C170.562 0.0346816 169.396 0.0834087 170.163 0.0704616C170.425 0.0660468 170.674 0.0158104 172.047 0.0411647ZM175.076 0.0440944C174.971 0.0486519 174.864 0.0532088 174.759 0.0577663C176.548 0.0466113 178.613 0.0686719 180.674 0.0685085C181.196 0.0684945 180.595 0.0403938 181.28 0.0480006C181.829 0.0541046 182.437 0.0793457 182.139 0.08511C182.064 0.0865191 180.948 0.0697179 180.389 0.0714381C178.737 0.0765541 179.153 0.101066 179.057 0.101712C178.948 0.102341 177.91 0.0853391 177.343 0.0860866C175.915 0.0880221 175.263 0.10233 173.312 0.0831569C174.438 0.0674037 173.822 0.033915 175.076 0.0440944ZM243.427 0.0909694C243.36 0.106051 242.187 0.0926648 241.762 0.0948756C241.83 0.0798308 243.001 0.0931791 243.427 0.0909694ZM199.293 0.0743678C199.95 0.100582 196.686 0.0855533 198.202 0.0685085C198.271 0.0677409 199.259 0.0731003 199.293 0.0743678ZM97.7246 0.0558131C97.718 0.0678379 99.2308 0.0755266 99.3818 0.0548366C99.0806 0.0557039 97.7422 0.0482794 97.7246 0.0558131ZM225.312 0.0499538C225.457 0.0777486 223.693 0.0571842 223.08 0.060696C222.935 0.0328785 224.699 0.0534568 225.312 0.0499538ZM211.945 0.0401881C219.382 0.0182598 217.743 0.0768342 211.503 0.0528835C211.494 0.0352828 211.478 0.0415619 211.945 0.0401881ZM221.469 0.0431178C221.198 0.0609383 220.354 0.0552878 219.783 0.05386C219.886 0.04148 221.057 0.04632 221.469 0.0431178ZM64.0869 0.0372585C64.5532 0.0147506 66.6182 0.0426164 66.2519 0.0519069C66.1665 0.0539112 63.9179 0.0496251 64.0869 0.0372585ZM201.056 0.0343288C201.745 0.0584944 199.006 0.0381249 198.825 0.0440944C198.652 0.0170684 200.881 0.0283175 201.056 0.0343288ZM235.87 0.0265163C235.542 0.0446301 234.247 0.0366652 233.636 0.0362819C234.03 0.0151116 235.15 0.0262347 235.87 0.0265163ZM229.53 0.0216335C230.353 0.0423293 227.512 0.037152 228.436 0.0196803C228.483 0.0188736 229.485 0.020659 229.53 0.0216335ZM11.9863 0.00210221C12.6648 0.0224385 10.3825 0.0177941 11.165 0.000149082C11.1985 -0.000533779 11.9598 0.00130562 11.9863 0.00210221Z" fill="#DBC6AE"/>
</svg>
