<svg width="16" height="16" viewBox="0 0 16 16" fill="none" xmlns="http://www.w3.org/2000/svg">
<path d="M8.1415 11.1831C8.13464 11.1895 8.12961 11.1914 8.1249 11.1939L8.15713 11.1646C8.14925 11.1739 8.14503 11.1797 8.1415 11.1831Z" fill="white"/>
<path d="M10.5712 7.13429C10.5657 7.14697 10.5729 7.11376 10.5497 7.18409C10.5695 7.1184 10.5389 7.1832 10.5302 7.18897C10.5212 7.20016 10.5129 7.21118 10.5048 7.2212C10.5002 7.20264 10.4995 7.18572 10.5038 7.17042C10.503 7.16342 10.5403 7.08555 10.5321 7.18409C10.5639 7.10137 10.5603 7.14413 10.5712 7.13429Z" fill="white"/>
<path fill-rule="evenodd" clip-rule="evenodd" d="M14.2157 1.01515C14.2309 1.01112 14.2492 1.00865 14.2763 1.01026C14.3072 1.01345 14.3439 1.02084 14.3915 1.03663C14.3944 1.03764 14.3974 1.03856 14.4003 1.03956C14.4754 1.05162 14.542 1.0654 14.6073 1.08448C14.684 1.1069 14.798 1.15103 14.8603 1.18214C14.9225 1.21336 14.9816 1.24869 14.9911 1.26124C15.0005 1.27388 15.0032 1.29781 14.997 1.31397C14.9897 1.33196 14.9679 1.34552 14.9403 1.35011C14.9293 1.35188 14.9175 1.35091 14.8954 1.3462C15.0302 1.57528 15.0149 1.64413 14.9608 1.84815C14.8223 2.14014 14.6486 2.15641 14.5399 2.18409C14.2108 2.19556 14.2621 2.1474 14.1913 2.13722C14.1436 2.12038 14.1009 2.10454 14.0595 2.08839C13.9914 2.06174 13.9253 2.03485 13.8612 2.00831C13.8014 1.99944 13.7428 1.99067 13.6874 1.98194C13.6824 1.98115 13.6765 1.97979 13.6718 1.97901C13.5679 1.9628 13.6216 1.9422 13.5536 1.93116C13.4853 1.92082 13.4295 1.91997 13.3808 1.92335C13.3244 1.92721 13.2468 1.93457 13.206 1.93507C13.2033 1.93521 13.2 1.93497 13.1972 1.93507C13.1516 1.93791 13.2005 1.88913 13.1522 1.89308C13.1194 1.89607 13.0849 1.90094 13.0556 1.90479C12.9962 1.91285 12.9216 1.92652 12.8563 1.93995C12.8168 1.94776 12.7392 1.96593 12.7333 1.96632C12.687 1.9812 12.6547 1.99157 12.6161 2.00343C12.5847 2.01274 12.5322 2.0301 12.5214 2.0337C12.493 2.0455 12.4507 2.0644 12.414 2.0796C12.3708 2.09748 12.3271 2.11526 12.2841 2.13331C12.16 2.18607 12.0106 2.26256 11.8866 2.33253C11.8596 2.34798 11.8306 2.36516 11.8017 2.38233C11.8511 2.44272 11.9067 2.50955 11.9413 2.55714C11.9915 2.62618 12.0325 2.68561 12.0321 2.68897C12.0332 2.69445 12.0648 2.74652 12.1034 2.80616C12.143 2.86733 12.2071 2.98008 12.246 3.05616C12.285 3.13241 12.3408 3.25078 12.369 3.31886C12.3972 3.38693 12.4336 3.4857 12.4501 3.53858C12.4667 3.59156 12.4863 3.66128 12.494 3.69288C12.5018 3.72484 12.5229 3.81925 12.5409 3.90284C12.5588 3.98663 12.5803 4.08724 12.5878 4.1255C12.5953 4.16382 12.6021 4.2234 12.6034 4.25733C12.6048 4.29181 12.61 4.36977 12.6151 4.43116C12.6203 4.49326 12.6187 4.67134 12.6122 4.82667C12.6055 4.98225 12.5917 5.16778 12.581 5.2378C12.5702 5.30784 12.5444 5.43781 12.5233 5.52687C12.5022 5.61614 12.4618 5.7618 12.4335 5.85011C12.4053 5.93829 12.3729 6.03223 12.3622 6.05812C12.3513 6.08407 12.3313 6.13411 12.3173 6.16944C12.3031 6.20509 12.2725 6.26869 12.2499 6.31007C12.2383 6.33108 12.2249 6.357 12.2118 6.38136C12.2054 6.3966 12.1983 6.41156 12.1923 6.42628C12.1651 6.49117 12.1442 6.53257 12.1151 6.58741C12.0931 6.62787 12.0701 6.67139 12.0507 6.71046C12.024 6.76307 12.0027 6.80138 11.9804 6.84522C11.9537 6.89725 12.0004 6.88554 11.9989 6.89601C11.9814 6.96132 11.9651 6.99146 11.9491 7.00733C11.9217 7.03424 11.8933 7.02297 11.8515 7.08351C11.8132 7.13829 11.7895 7.17656 11.7313 7.25538C11.6808 7.31615 11.6307 7.37686 11.581 7.43897C11.5212 7.51327 11.466 7.58273 11.3993 7.66163C11.3487 7.71993 11.2991 7.77638 11.2499 7.83351C11.185 7.90816 11.1241 7.97564 11.0604 8.04542C11.0128 8.09713 10.9673 8.14603 10.9218 8.19386C10.9211 8.19458 10.9196 8.19515 10.9188 8.19581C10.9333 8.19157 10.9615 8.18467 11.0194 8.17335L11.0243 8.17237C10.8964 8.19722 10.9709 8.18379 10.9618 8.18409C10.9679 8.18188 10.9771 8.17931 10.9843 8.17628C11.0645 8.14371 11.095 8.13503 11.1454 8.11769C11.1893 8.10268 11.0989 8.08519 11.1864 8.05616C11.2215 8.04467 11.2567 8.03213 11.2919 8.02101C11.4077 7.98488 11.5083 7.95382 11.6405 7.91847C11.713 7.90037 11.7688 7.88729 11.8534 7.87159C11.9212 7.86016 11.9775 7.85181 12.0409 7.84327C12.1049 7.83496 12.1653 7.82747 12.2304 7.82081C12.307 7.8134 12.3531 7.81139 12.4345 7.81202C12.4758 7.81411 12.5425 7.81426 12.5956 7.81495C12.6838 7.81317 12.7698 7.82207 12.8388 7.83253C12.894 7.84193 12.863 7.92092 13.0185 7.92335C13.0255 7.92346 13.0437 7.92334 13.0683 7.92433C13.101 7.92551 13.147 7.9259 13.1923 7.92726C13.1924 7.91863 13.1952 7.90963 13.1942 7.90089C13.1921 7.8766 12.9893 7.87829 13.1151 7.83546C13.1286 7.83241 13.2676 7.83189 13.3046 7.81886C13.3291 7.80871 13.2935 7.76233 13.3456 7.75343C13.3616 7.75101 13.378 7.75392 13.3954 7.75831C13.4337 7.76822 13.4757 7.7869 13.5351 7.78468C13.5933 7.78295 13.5941 7.75788 13.6601 7.75636C13.6904 7.75522 13.7246 7.75737 13.7792 7.77101C13.8068 7.77795 13.8352 7.78511 13.8651 7.79347C13.9606 7.82119 14.035 7.84622 14.1298 7.88233C14.2225 7.91908 14.2929 7.94961 14.3905 7.99854C14.4817 8.04631 14.5438 8.08386 14.6278 8.13819C14.6557 8.15658 14.6818 8.17581 14.7089 8.19581C14.7481 8.2295 14.7235 8.19132 14.8534 8.32374C14.9174 8.41991 14.9477 8.45351 14.9638 8.54249C14.9707 8.54817 14.9776 8.551 14.9804 8.55421C14.992 8.56814 15.001 8.59201 14.9999 8.60694C14.9987 8.62131 14.9875 8.64149 14.9755 8.65382C14.9763 8.67172 14.9789 8.69111 14.9794 8.71241C14.9414 8.93395 14.9187 8.93309 14.8153 9.05616C14.6701 9.20595 14.4395 9.2099 14.3847 9.19776C14.2291 9.17086 14.224 9.15247 14.1786 9.13429C14.1056 9.09673 14.09 9.07732 14.079 9.06397C14.0727 9.05002 14.0773 9.04137 14.0419 9.0171C14.0055 8.99232 13.9671 8.96922 13.9315 8.94874C13.8954 8.96749 13.8559 8.99055 13.8163 9.01319C13.8372 9.02073 13.8505 9.02583 13.8583 9.02784C13.8539 9.02841 13.8493 9.02931 13.8466 9.02979C13.8173 9.03795 13.7535 9.05921 13.702 9.07765C13.6067 9.13701 13.5005 9.20952 13.414 9.27394C13.3589 9.31523 13.3359 9.33557 13.2479 9.39796C13.2389 9.40482 13.2136 9.42284 13.203 9.43116C13.1614 9.46342 13.1142 9.50038 13.0683 9.53761C13.0422 9.56133 12.9934 9.6081 12.955 9.64405C12.9143 9.6821 12.8509 9.74229 12.8144 9.77784C12.7779 9.81341 12.7151 9.87633 12.6747 9.91749C12.6345 9.95852 12.5725 10.0215 12.537 10.0571C12.5014 10.0928 12.4388 10.1562 12.3974 10.1978C12.3561 10.2394 12.3077 10.2893 12.2909 10.3081C12.2739 10.3271 12.2401 10.3647 12.2157 10.3921C12.191 10.4197 12.1573 10.4543 12.1415 10.4692C12.1257 10.4842 12.1125 10.4994 12.1122 10.5025C12.1101 10.5073 12.0833 10.5383 12.0507 10.5728C12.0168 10.6085 11.9879 10.6416 11.9872 10.646C11.9862 10.6506 11.9773 10.6607 11.9667 10.6685C11.9555 10.6765 11.9215 10.7125 11.8915 10.7485C11.8614 10.7847 11.8203 10.8329 11.8007 10.855C11.781 10.8772 11.7465 10.9182 11.7235 10.9458C11.7003 10.9737 11.6579 11.0239 11.6298 11.0571C11.6017 11.0904 11.5669 11.1285 11.5526 11.1421C11.538 11.1559 11.4672 11.2398 11.3954 11.3286C11.3232 11.4178 11.1869 11.5909 11.0927 11.7124C11.0013 11.8304 10.926 11.9289 10.9218 11.936C10.9196 11.9406 10.8696 12.0086 10.8095 12.0894C10.7479 12.172 10.6975 12.2426 10.6972 12.2456C10.6948 12.2513 10.6639 12.2951 10.6269 12.3452C10.5885 12.3971 10.5375 12.4695 10.5136 12.5064C10.4894 12.5433 10.4184 12.6497 10.3554 12.7427C10.2924 12.8357 10.221 12.9392 10.1972 12.9732C10.1734 13.0069 10.1385 13.0582 10.12 13.0864C10.1015 13.115 10.0566 13.183 10.0204 13.2378C9.98411 13.2928 9.9536 13.3446 9.95302 13.3521C9.95213 13.3595 9.94574 13.3694 9.93838 13.3745C9.93059 13.3801 9.89099 13.4384 9.85048 13.5034C9.80969 13.5688 9.74625 13.6735 9.70888 13.7358C9.67152 13.7982 9.62451 13.8791 9.60537 13.9165C9.58629 13.9538 9.56388 14.0065 9.55556 14.0327C9.54749 14.0585 9.53714 14.0844 9.53213 14.0903C9.52681 14.0965 9.50491 14.1489 9.4833 14.2066C9.46268 14.2616 9.44484 14.3328 9.43252 14.4058C9.44233 14.4064 9.45029 14.4078 9.454 14.4077C9.46711 14.408 9.5338 14.3951 9.5497 14.3892C9.5893 14.3761 9.66068 14.3477 9.70888 14.3276C9.74433 14.3129 9.82281 14.2731 9.88173 14.2456C9.90188 14.2362 9.91578 14.2343 9.92666 14.2368C9.95667 14.2409 9.97025 14.2686 10.0302 14.2417C10.0531 14.2317 10.0901 14.2112 10.1181 14.1958C10.1121 14.1884 10.1131 14.177 10.1474 14.1519C10.1506 14.1494 10.1542 14.1463 10.1571 14.1441C10.2146 14.0996 10.2761 14.05 10.3349 14.0025C10.3463 13.9506 10.2771 13.9261 10.3261 13.8735C10.3298 13.8698 10.3327 13.8669 10.3349 13.8648C10.3871 13.8128 10.433 13.7694 10.4833 13.7232C10.5419 13.6688 10.6071 13.609 10.663 13.5571C10.7163 13.5074 10.7702 13.4584 10.8241 13.4097C10.8467 13.3897 10.8898 13.348 10.8935 13.3462C10.9525 13.2872 10.9639 13.2814 10.9979 13.2505C11.0355 13.2174 11.0813 13.1755 11.1161 13.1431C11.1263 13.1335 11.1365 13.1242 11.1454 13.1157C11.1496 13.1117 11.1539 13.1071 11.1571 13.104C11.1586 13.1027 11.1606 13.1014 11.161 13.1011C11.1648 13.0967 11.1668 13.0936 11.1688 13.0913C11.1729 13.0869 11.1761 13.0842 11.1786 13.0816C11.1836 13.0764 11.1875 13.0717 11.1913 13.0679C11.1988 13.0604 11.2061 13.0539 11.2128 13.0474C11.2263 13.0343 11.2397 13.0217 11.2528 13.0093C11.2798 12.9842 11.3172 12.9475 11.3319 12.9341C11.3611 12.9045 11.384 12.8819 11.4101 12.856C11.446 12.8204 11.4807 12.7867 11.5165 12.7515C11.551 12.718 11.5976 12.6683 11.6366 12.6265C11.6627 12.5985 11.691 12.5676 11.7177 12.5376C11.7717 12.4764 11.7227 12.4974 11.7685 12.4341C11.7756 12.4244 11.7849 12.4129 11.7958 12.3999C11.8234 12.367 11.8514 12.333 11.8837 12.2944C11.9157 12.2552 11.9666 12.191 12.0106 12.1343C12.0265 12.1138 12.0435 12.0917 12.0585 12.0708C12.066 12.0604 12.0735 12.0488 12.079 12.0405C12.074 12.0507 12.0663 12.0668 12.0546 12.0913C12.0294 12.1789 12.0284 12.1437 12.037 12.2622C12.0385 12.2802 12.0437 12.2984 12.0497 12.3169C12.068 12.2953 12.0876 12.2744 12.1054 12.2525C12.1396 12.2106 12.1706 12.1686 12.1952 12.1255C12.2319 12.086 12.2034 12.0435 12.3573 11.9839C12.3808 11.9784 12.3949 11.9762 12.4091 11.9732C12.4325 11.9755 12.4506 11.9773 12.4853 11.9878C12.5553 12.0065 12.6286 12.0889 12.6356 12.1655C12.6418 12.2385 12.6364 12.2531 12.6171 12.313C12.5887 12.3641 12.5662 12.3952 12.5487 12.4194C12.5511 12.4165 12.5536 12.414 12.5556 12.4116C12.5832 12.3784 12.6298 12.3224 12.6591 12.2876C12.6932 12.2471 12.7238 12.2234 12.744 12.2212C12.7614 12.2195 12.7889 12.2219 12.8056 12.2271C12.8247 12.2332 12.8376 12.2479 12.8407 12.2671C12.8433 12.284 12.8397 12.3123 12.8329 12.3296C12.8256 12.3475 12.7727 12.4207 12.7147 12.4927C12.6564 12.5651 12.5908 12.6455 12.5692 12.6704C12.5476 12.6955 12.493 12.7595 12.4481 12.812C12.4032 12.8648 12.3275 12.9511 12.2802 13.0034C12.233 13.0557 12.1723 13.1205 12.1454 13.148C12.1186 13.1754 12.0705 13.2254 12.039 13.2583C12.0074 13.2912 11.9738 13.3276 11.9638 13.3384C11.9533 13.3495 11.9118 13.3905 11.872 13.4302C11.8321 13.4699 11.7996 13.5038 11.7997 13.5054C11.7981 13.5086 11.7697 13.5382 11.7353 13.5728C11.6998 13.6084 11.6387 13.6663 11.6005 13.7017C11.5622 13.737 11.524 13.7736 11.5155 13.7827C11.5065 13.7922 11.4645 13.832 11.4218 13.8716C11.3785 13.9115 11.3026 13.9816 11.2538 14.0269C11.2048 14.0722 11.1138 14.1535 11.0517 14.2075C10.9892 14.2617 10.9186 14.3248 10.8944 14.3472C10.8703 14.3698 10.8026 14.4251 10.744 14.4702C10.6856 14.5155 10.6144 14.5699 10.5858 14.5913C10.559 14.6116 10.4734 14.6679 10.3915 14.7202C10.3834 14.7342 10.3755 14.7481 10.3466 14.7661C10.3149 14.7857 10.2833 14.8055 10.2509 14.8237C10.1464 14.8811 10.0854 14.9119 9.93252 14.9644C9.89426 14.9747 9.85926 14.9811 9.82216 14.9878C9.81699 14.9886 9.82268 14.9822 9.829 14.9741C9.78822 14.9837 9.74498 14.9934 9.71377 14.9966C9.66994 15.0011 9.59476 14.9996 9.53603 14.9966C9.52475 14.9971 9.51287 14.999 9.4999 14.9995C9.4727 14.9992 9.44374 15.0004 9.38173 14.9946C9.31505 14.9892 9.23864 14.9608 9.21279 14.9487C9.19613 14.9418 9.17697 14.9328 9.1581 14.9224C9.13507 14.9306 9.10744 14.9366 9.07314 14.9351C9.04414 14.932 9.01597 14.9251 8.98525 14.9116C8.97827 14.9082 9.02174 14.8872 9.00478 14.8755C8.97901 14.8582 8.95344 14.8471 8.91982 14.8267C8.88549 14.8047 8.8602 14.7847 8.83877 14.7573C8.82761 14.7426 8.81826 14.7273 8.80947 14.7105C8.78104 14.65 8.78243 14.6045 8.7665 14.5493C8.75841 14.5153 8.74625 14.4881 8.72646 14.438C8.71945 14.4175 8.70991 14.3948 8.69619 14.3706C8.69546 14.3694 8.69364 14.3675 8.69228 14.3667C8.6709 14.3509 8.57208 14.3784 8.56435 14.19L8.56338 14.0796C8.56376 14.0318 8.56564 13.9742 8.57119 13.9126C8.58468 13.794 8.60718 13.6916 8.62295 13.6392C8.65288 13.5461 8.67254 13.6193 8.67568 13.6128C8.71214 13.5317 8.73685 13.4907 8.75869 13.4634C8.79807 13.4205 8.81724 13.4378 8.88271 13.3804C8.88469 13.3788 8.88749 13.3763 8.88955 13.3745C8.98243 13.2929 8.86812 13.2624 8.83779 13.2183C8.83355 13.212 8.83162 13.205 8.83193 13.1978C8.83352 13.1741 8.85012 13.1354 8.87783 13.0903C8.89182 13.0705 8.91001 13.0405 8.92177 13.022C8.94198 12.9818 8.96195 12.959 8.97353 12.9448C8.97711 12.9407 8.98143 12.9371 8.98427 12.9351C9.00652 12.9217 9.00399 12.965 9.02627 12.937C9.06229 12.8905 9.083 12.8568 9.0917 12.8325C9.12392 12.7443 9.01098 12.7725 9.02627 12.6997C9.03304 12.6691 9.04316 12.6412 9.05654 12.6138C9.07562 12.574 9.09976 12.539 9.12783 12.5064C9.15202 12.4779 9.17669 12.4552 9.204 12.4312C9.21416 12.4302 9.2438 12.3718 9.23037 12.438C9.28669 12.325 9.29465 12.3635 9.32509 12.3267C9.34948 12.3056 9.3729 12.2811 9.39345 12.2544C9.42401 12.2141 9.37961 12.2323 9.40127 12.1939C9.40499 12.1873 9.40848 12.1795 9.41201 12.1733C9.46951 12.0791 9.52552 12.0225 9.58291 11.9478C9.55959 11.9481 9.53557 11.9485 9.51162 11.9487H9.50966C9.46566 11.9502 9.52945 11.992 9.45595 11.9946C9.43524 11.9947 9.31887 12.0018 9.39736 11.9946C9.21761 12.0088 9.24096 11.9993 9.16494 11.9995C9.0807 11.9968 8.99273 11.9918 8.91591 11.9849C8.83662 11.9776 8.9433 11.9435 8.86318 11.937C8.84887 11.9359 8.83369 11.9341 8.81923 11.9331C8.72004 11.9263 8.61409 11.9219 8.51357 11.9214C8.42826 11.9209 8.3517 11.9216 8.27334 11.9233C8.18973 11.9253 8.31424 11.9701 8.20595 11.9692C8.18721 11.9691 8.16806 11.9684 8.14931 11.9683C8.10604 11.9679 8.06284 11.9674 8.02041 11.9673H7.94033C7.93613 11.9674 7.93159 11.9682 7.92763 11.9683C7.92617 11.9683 7.92419 11.9683 7.92275 11.9683C7.91895 11.9686 7.91567 11.969 7.91298 11.9692C7.90344 11.9699 7.89634 11.97 7.89052 11.9702C7.87907 11.9707 7.86897 11.9711 7.86025 11.9712C7.84317 11.9714 7.82729 11.9714 7.81142 11.9712C7.72125 11.969 7.65958 11.9647 7.58486 11.9605C7.55813 11.9588 7.53133 11.9579 7.50381 11.9556C7.49018 11.9544 7.47587 11.9533 7.45986 11.9517C7.45163 11.9508 7.44217 11.9493 7.43056 11.9478C7.42455 11.947 7.41763 11.9456 7.40713 11.9439C7.40118 11.9429 7.39425 11.9416 7.38173 11.939C7.3745 11.9374 7.36585 11.9361 7.34853 11.9312C7.34145 11.9291 7.32514 11.9242 7.30361 11.9155C7.29797 11.9132 7.28457 11.906 7.26552 11.896C7.23563 11.9297 7.19789 11.9749 7.1581 12.0191C7.08331 12.1019 6.97357 12.2242 6.91396 12.2905C6.8544 12.3568 6.76796 12.4519 6.72158 12.5015C6.67527 12.551 6.63693 12.5941 6.63662 12.5972C6.6351 12.6013 6.61264 12.6254 6.58584 12.6519C6.58293 12.6547 6.57903 12.6577 6.57509 12.6616C6.58215 12.6654 6.58931 12.6678 6.58779 12.6704C6.54738 12.7187 6.52216 12.7327 6.50381 12.7339C6.47497 12.7629 6.44284 12.7954 6.41298 12.8257C6.36846 12.8708 6.3107 12.9275 6.26259 12.9751C6.26536 12.9762 6.2678 12.9766 6.26748 12.978C6.2609 12.9954 6.25316 13.0112 6.24404 13.0239C6.21562 13.0636 6.17744 13.0792 6.14834 13.0874C6.11113 13.1235 6.07456 13.1594 6.05459 13.1792C6.02495 13.2084 5.95214 13.2779 5.89345 13.3335C5.86573 13.3661 5.8367 13.3982 5.79775 13.436C5.7796 13.4533 5.76061 13.4696 5.74013 13.4878C5.72649 13.5 5.70974 13.5167 5.69423 13.5308C5.67343 13.5496 5.65278 13.5665 5.62978 13.5855C5.60319 13.6072 5.57425 13.6317 5.5458 13.6548C5.50468 13.6881 5.46142 13.722 5.41884 13.7554C5.33306 13.8204 5.25291 13.8742 5.1708 13.9282C5.14616 13.946 5.12166 13.9649 5.09756 13.9819C5.00038 14.0507 4.83757 14.1592 4.73525 14.2232C4.63281 14.287 4.46632 14.3812 4.36611 14.4321C4.26744 14.4822 4.18321 14.5261 4.17666 14.5308C4.17208 14.5345 4.12936 14.5545 4.08193 14.5747C4.03408 14.5953 3.93286 14.6375 3.85732 14.6694C3.82514 14.683 3.78504 14.6957 3.74599 14.7105C3.74054 14.7132 3.73545 14.7173 3.72939 14.7202L3.72841 14.7212C3.70082 14.7335 3.67761 14.7392 3.65908 14.7427C3.6387 14.7498 3.6209 14.7584 3.60537 14.7632C3.54247 14.7828 3.45897 14.8077 3.41982 14.8189C3.38053 14.8301 3.30065 14.8524 3.24209 14.8677C3.18331 14.883 3.10922 14.901 3.07802 14.9077C3.04662 14.9145 2.96782 14.9279 2.90224 14.938C2.83641 14.9481 2.74136 14.9599 2.6913 14.9644C2.64137 14.9687 2.55941 14.9743 2.50966 14.9761C2.46008 14.9777 2.36654 14.9778 2.30166 14.9771C2.23681 14.9762 2.13663 14.9713 2.07998 14.9653C2.02342 14.9595 1.9349 14.9436 1.88271 14.9302C1.8306 14.9167 1.74739 14.8943 1.69912 14.8804C1.65073 14.8663 1.56378 14.829 1.50576 14.7983C1.44769 14.7676 1.36235 14.7127 1.3163 14.6763C1.27016 14.6399 1.20271 14.5751 1.16689 14.5327C1.13135 14.4902 1.08681 14.4167 1.06728 14.3696C1.04781 14.3225 1.02237 14.2432 1.01162 14.1939C0.995468 14.1189 0.99619 14.0822 1.01357 13.9692C1.02508 13.8952 1.04691 13.8039 1.0624 13.7661C1.07805 13.7285 1.10721 13.6647 1.12685 13.6245C1.13475 13.6085 1.14897 13.5877 1.16298 13.564C1.17671 13.5251 1.19133 13.483 1.21279 13.4312C1.24161 13.3648 1.26317 13.3148 1.30849 13.2358C1.32811 13.2023 1.34581 13.172 1.36904 13.1343C1.38317 13.1118 1.39509 13.0934 1.41103 13.0698C1.44251 13.026 1.45436 13.012 1.47939 12.9829C1.51936 12.9393 1.54055 12.92 1.57998 12.8862C1.5814 12.8851 1.58383 12.8824 1.58584 12.8804C1.58217 12.8857 1.58352 12.8827 1.56045 12.9194C1.54491 12.9588 1.53397 12.9884 1.52724 13.0112C1.54497 12.9889 1.5667 12.965 1.5956 12.938C1.62335 12.9169 1.63811 12.8883 1.73134 12.8608C1.74864 12.8571 1.77068 12.8547 1.79384 12.8569C1.83036 12.856 1.93435 12.8959 1.96181 12.9829C1.97315 13.0368 1.99551 13.0431 1.95107 13.1528C1.89909 13.2231 1.89567 13.2139 1.86806 13.2388C1.85129 13.2511 1.82516 13.2744 1.80947 13.2886C1.80414 13.2936 1.7971 13.2998 1.79091 13.3062C1.82134 13.3031 1.84204 13.3006 1.85537 13.2974C1.83022 13.3137 1.78669 13.3475 1.76259 13.3677C1.73364 13.392 1.68503 13.4452 1.6542 13.4819C1.62928 13.5176 1.60201 13.5619 1.58193 13.5991C1.55822 13.644 1.53581 13.6936 1.51943 13.7358C1.51395 13.7336 1.50803 13.7337 1.50283 13.7329C1.49884 13.7462 1.48952 13.7873 1.48623 13.813C1.48358 13.8309 1.48261 13.8472 1.48232 13.8599C1.48911 13.8286 1.49625 13.7942 1.50576 13.7661C1.50871 13.7576 1.51204 13.748 1.51552 13.7388C1.51639 13.7491 1.51691 13.7594 1.51748 13.7691C1.52201 13.8171 1.51661 13.8803 1.50771 13.9146C1.50577 13.9225 1.5018 13.9314 1.49892 13.9409C1.5119 13.9532 1.52964 13.948 1.54189 13.9507C1.54683 13.9521 1.55174 13.9582 1.55654 13.9692C1.56807 13.9885 1.58345 14.0529 1.58584 14.0806C1.57769 14.0897 1.60226 14.1616 1.59755 14.1753C1.59912 14.192 1.60895 14.2137 1.61123 14.2212C1.6091 14.2198 1.58658 14.2002 1.57509 14.1929C1.56514 14.1883 1.54988 14.1803 1.55654 14.2066C1.55551 14.2089 1.55433 14.2117 1.55361 14.2134C1.55107 14.2508 1.61125 14.2213 1.61123 14.2212C1.61255 14.2277 1.64672 14.268 1.67666 14.2954C1.70704 14.3231 1.77919 14.3712 1.81435 14.3892C1.83371 14.3992 1.8563 14.4085 1.86709 14.4116C1.89381 14.4181 1.89465 14.3787 1.9081 14.3823C1.92975 14.3891 1.95718 14.3973 1.96377 14.397C2.01714 14.4081 2.07759 14.4202 2.13173 14.4312C2.16718 14.4368 2.23621 14.4463 2.27334 14.4478C2.32448 14.4503 2.39798 14.453 2.45302 14.4526C2.51176 14.452 2.58159 14.4504 2.63662 14.4487C2.6834 14.4469 2.7427 14.4441 2.78994 14.4409C2.84111 14.437 2.9119 14.43 2.96963 14.4233C2.99225 14.4206 3.01581 14.4165 3.03896 14.4136C3.04593 14.4143 3.04337 14.4563 3.06045 14.4546C3.08527 14.4523 3.11362 14.4493 3.12783 14.4468C3.17139 14.438 3.22687 14.4209 3.27041 14.4048C3.32508 14.3846 3.38059 14.3607 3.42666 14.3374C3.47639 14.3122 3.53235 14.2829 3.58681 14.2554C3.59354 14.2514 3.60199 14.2462 3.61025 14.2417C3.6453 14.2226 3.6838 14.2062 3.71865 14.19C3.76587 14.1421 3.83177 14.0804 3.91005 14.064C3.91405 14.0632 3.91869 14.0626 3.92275 14.062C3.93852 14.0604 3.93774 14.0876 3.96279 14.0864C4.04468 14.0812 4.03305 13.9926 4.14052 14.0015C4.18072 14.0044 4.23092 13.9994 4.28603 13.978C4.37069 13.9445 4.46509 13.8786 4.55361 13.7739C4.5612 13.7648 4.56856 13.7543 4.57607 13.7446C4.5806 13.7342 4.58403 13.6509 4.63955 13.604C4.6543 13.5916 4.67105 13.5784 4.6874 13.565C4.70192 13.5527 4.7183 13.5396 4.73232 13.5259C4.75167 13.5069 4.77154 13.4877 4.79189 13.4692C4.8367 13.4285 4.88207 13.386 4.9208 13.3472C4.92868 13.3392 4.93688 13.3304 4.94423 13.3228C4.984 13.2808 4.93213 13.2797 4.9374 13.272C4.97081 13.2335 5.00358 13.1956 5.03603 13.1607C5.07048 13.1234 5.10586 13.0854 5.13662 13.0503C5.16267 13.0201 5.18939 12.9924 5.2167 12.9644C5.24827 12.9321 5.28044 12.8989 5.3124 12.8667C5.35133 12.8272 5.39104 12.785 5.43056 12.7427C5.46922 12.701 5.50968 12.6584 5.55068 12.6138C5.57248 12.5904 5.59285 12.5678 5.61904 12.5425C5.64384 12.5174 5.6727 12.484 5.70009 12.4526C5.70411 12.448 5.70921 12.4414 5.71377 12.4351C5.74725 12.3888 5.79573 12.3006 5.85537 12.2202C5.88481 12.1813 5.91149 12.1481 5.95302 12.1138C5.96015 12.1098 5.97498 12.0976 5.98623 12.0903C6.02852 12.062 6.06321 12.0642 6.09463 12.0728C6.10219 12.0748 6.10968 12.0771 6.11709 12.0796C6.15334 12.0354 6.19354 11.9877 6.21279 11.9624C6.23638 11.9316 6.27852 11.8815 6.30654 11.8511C6.33169 11.8237 6.39073 11.7548 6.44521 11.6919C6.44752 11.6819 6.45042 11.6718 6.45302 11.6616C6.46701 11.606 6.48465 11.5563 6.51455 11.4966C6.517 11.4906 6.52856 11.4764 6.53701 11.4673C6.55956 11.4415 6.58445 11.4159 6.61513 11.3931C6.63556 11.3783 6.65979 11.3644 6.68642 11.353C6.73507 11.2925 6.78569 11.2338 6.83681 11.1773C6.89396 11.1106 6.94058 11.0767 7.00966 10.979C7.01225 10.9911 7.04321 10.9491 7.06142 10.9341C7.10043 10.8967 7.14093 10.8591 7.18056 10.8228C7.20397 10.7967 7.21254 10.8082 7.25088 10.7398C7.25793 10.7546 7.30434 10.6949 7.33193 10.6724C7.36143 10.6441 7.40663 10.6038 7.4208 10.5894C7.46913 10.5532 7.48689 10.5332 7.51845 10.5044C7.56525 10.4602 7.61196 10.4145 7.6581 10.3687C7.70531 10.3219 7.75436 10.2736 7.80166 10.2241C7.80803 10.217 7.81406 10.1973 7.82119 10.1743C7.83279 10.1366 7.84848 10.0878 7.87588 10.065C7.89903 10.0461 7.9187 10.0346 7.94423 10.022C7.97944 10.0076 8.0173 9.99282 8.04775 9.96827C8.05116 9.9656 8.05516 9.96319 8.05849 9.96046C8.08886 9.93558 8.11694 9.91013 8.14834 9.88526C8.2244 9.82691 8.29802 9.76395 8.37002 9.70265L8.37197 9.70069C8.30837 9.72452 8.24726 9.74792 8.1747 9.76905C8.0838 9.7942 7.99358 9.81784 7.9042 9.84034C7.89519 9.84256 7.88575 9.84405 7.87685 9.8462L7.73037 9.89015C7.684 9.90164 7.63598 9.91155 7.58584 9.91749C7.57554 9.91878 7.56928 9.91634 7.56533 9.91261C7.53116 9.91829 7.4972 9.9239 7.46377 9.92921C7.43022 9.94526 7.39669 9.95807 7.36416 9.96729C7.26222 9.99516 7.17838 9.99753 7.07509 10.0112C7.01842 10.0179 6.96145 10.0284 6.90029 10.0503C6.89688 10.0516 6.88738 10.0633 6.87392 10.0757C6.83713 10.1036 6.79373 10.1336 6.75966 10.0874C6.7548 10.0808 6.70663 10.0128 6.68056 10.0679C6.67901 10.0715 6.70774 10.1079 6.66689 10.1099C6.65513 10.1103 6.64063 10.1133 6.62588 10.1167C6.5835 10.1259 6.53612 10.1354 6.49111 10.1089C6.47981 10.1023 6.45812 10.0788 6.43349 10.0689C6.41819 10.0702 6.40205 10.0715 6.38662 10.0728C6.38102 10.0769 6.37569 10.0831 6.37002 10.0903C6.36712 10.0944 6.33426 10.1565 6.2958 10.1733C6.27868 10.1819 6.26144 10.1773 6.2499 10.145C6.24705 10.1369 6.24454 10.1049 6.23525 10.0845C6.21843 10.0856 6.20134 10.0873 6.18447 10.0884C6.18161 10.0998 6.19134 10.117 6.16591 10.1304C6.12682 10.1505 6.07432 10.1376 6.02529 10.1607C6.01381 10.1652 6.00262 10.1716 5.99209 10.1792C5.9805 10.188 5.93369 10.2571 5.89443 10.2066C5.88873 10.1981 5.89813 10.1645 5.87881 10.1607C5.83881 10.1538 5.79858 10.1542 5.75283 10.1538C5.70424 10.1535 5.65163 10.1545 5.60244 10.1411C5.58327 10.1359 5.5792 10.1121 5.57314 10.0913C5.50922 10.0874 5.44626 10.083 5.38466 10.0786C5.37397 10.1133 5.38459 10.1674 5.34072 10.1704C5.32807 10.1711 5.31456 10.1722 5.30166 10.1724C5.24744 10.1743 5.15769 10.169 5.14443 10.1655C4.89885 10.1436 4.81384 10.1044 4.65127 10.0825C4.61906 10.078 4.6403 10.11 4.5956 10.1069H4.59267C4.53262 10.1008 4.45759 10.095 4.37783 10.0874C4.3379 10.0836 4.29643 10.079 4.25283 10.0728C4.23071 10.0696 4.20746 10.0662 4.18056 10.061C4.16717 10.0584 4.15211 10.0555 4.13076 10.0503C4.11887 10.0473 4.10739 10.0444 4.08291 10.0366C4.07032 10.0323 4.05582 10.0277 4.02236 10.0122C4.00624 10.004 3.9834 9.99597 3.9374 9.96144C3.93408 9.95738 3.92756 9.95219 3.91982 9.94581C3.89881 9.94259 3.87735 9.94034 3.85634 9.93702C3.83798 9.94364 3.81905 9.95093 3.80068 9.95753C3.69147 9.99517 3.60196 10.0177 3.49892 10.0425C3.41924 10.0609 3.34173 10.0787 3.25869 10.0962C3.21141 10.1059 3.16702 10.1151 3.11904 10.1235C3.06539 10.1329 3.01228 10.1415 2.95888 10.1499C2.87349 10.1628 2.79639 10.1708 2.71474 10.1792C2.68502 10.1822 2.65529 10.1855 2.62588 10.188C2.56257 10.193 2.63778 10.1437 2.57509 10.146C2.5557 10.1468 2.53733 10.1473 2.51162 10.148C2.46952 10.1477 2.42503 10.1474 2.37978 10.147C2.30198 10.1463 2.22833 10.1419 2.15029 10.1392C2.00335 10.1338 1.86506 10.1118 1.73916 10.103C1.60694 10.0906 1.4951 10.1076 1.35537 10.0923C1.31962 10.0895 1.28966 10.0893 1.26064 10.0913C1.23622 10.0774 1.2145 10.0652 1.18056 10.0415C1.12048 9.99343 1.09831 9.97749 1.04384 9.8921C1.01117 9.81972 0.995111 9.79642 1.00185 9.69874C1.001 9.69034 0.999729 9.68272 1.00088 9.67628C1.00143 9.67333 1.00272 9.66997 1.0038 9.66651C1.00393 9.66523 1.00465 9.66391 1.00478 9.66261C1.03365 9.55829 1.0514 9.54693 1.0956 9.48878C1.14396 9.43701 1.16849 9.41779 1.22353 9.38136C1.31308 9.33177 1.35514 9.32297 1.41982 9.30226C1.49915 9.28013 1.56135 9.27201 1.6249 9.26612C1.65258 9.26385 1.67342 9.26395 1.6874 9.26612C1.74836 9.27911 1.67861 9.3168 1.82998 9.27979C1.86989 9.27 1.81181 9.23941 1.87392 9.22804C1.90184 9.22308 1.93121 9.21833 1.96084 9.21437C2.03698 9.20596 2.08798 9.19815 2.19716 9.2046C2.2193 9.20641 2.27732 9.20528 2.31435 9.20167C2.49077 9.19563 2.58928 9.21567 2.71474 9.21827C2.76544 9.2199 2.75817 9.18525 2.77236 9.18019C2.90293 9.14568 3.09902 9.25142 3.14443 9.26319C3.28352 9.29856 3.4084 9.32062 3.5292 9.33839C3.5449 9.33303 3.56069 9.33044 3.57314 9.32569C3.60991 9.31163 3.64736 9.29771 3.68447 9.2837C3.73038 9.26777 3.85058 9.25402 3.89834 9.26222C3.90817 9.26366 3.91876 9.26465 3.92861 9.26612C3.93978 9.25692 3.94763 9.25088 3.95498 9.24562C3.97489 9.23182 3.98704 9.22584 3.99697 9.22022C4.01565 9.20995 4.028 9.20459 4.03896 9.19972C4.06042 9.19035 4.07697 9.18444 4.09267 9.17921C4.11951 9.17042 4.14382 9.16444 4.16689 9.15968C4.21245 9.13883 4.27849 9.10613 4.329 9.07765C4.39148 9.04211 4.45815 9.00425 4.5165 8.97022C4.57003 8.93778 4.64327 8.8884 4.704 8.8462C4.76942 8.8002 4.83766 8.75001 4.90224 8.70265C4.964 8.65716 4.93488 8.73191 4.96572 8.71144C4.96889 8.70931 4.97259 8.70666 4.97548 8.7046C5.04725 8.65281 5.08056 8.59498 5.09658 8.55714C5.11426 8.52386 5.13656 8.48663 5.17666 8.44776C5.18077 8.44373 5.18609 8.43991 5.19033 8.43604C5.21796 8.41147 5.22701 8.44727 5.23427 8.44581C5.28355 8.4297 5.31176 8.40021 5.33291 8.36671C5.35283 8.33053 5.35659 8.28954 5.36318 8.28077C5.36688 8.27578 5.37047 8.26955 5.37099 8.26808C5.44712 8.16418 5.52289 8.08805 5.59951 8.01515C5.63561 7.98091 5.67202 7.94683 5.70791 7.91261C5.72569 7.89566 5.74406 7.87753 5.76162 7.85987C5.77025 7.85119 5.77964 7.84225 5.78798 7.83351C5.79211 7.8291 5.79589 7.82396 5.7997 7.81983C5.80178 7.81766 5.80496 7.81567 5.80654 7.81397C5.80723 7.81324 5.80823 7.81222 5.80849 7.81202C5.81106 7.80391 5.8154 7.78707 5.78603 7.87062C5.86034 7.71597 5.8616 7.75075 5.89834 7.6919C5.90355 7.68458 5.90864 7.67615 5.91396 7.66847C5.93415 7.63846 5.85251 7.67972 5.91396 7.59522L6.02236 7.44874C6.02625 7.44337 6.03079 7.43687 6.03408 7.43214C6.03503 7.43073 6.03628 7.42935 6.03701 7.42823C6.03781 7.42264 6.04182 7.40308 6.01455 7.49562C6.06221 7.35492 6.03924 7.43162 6.04775 7.4087C6.05032 7.40506 6.05363 7.40264 6.05556 7.39991C6.05945 7.39441 6.06283 7.38907 6.06631 7.38429C6.07341 7.37458 6.08089 7.36514 6.08779 7.35597C6.1017 7.33748 6.11571 7.31836 6.12978 7.3003C6.1566 7.26624 6.20043 7.20539 6.20595 7.19776C6.23675 7.14553 6.25189 7.12648 6.27627 7.09327C6.32164 7.03234 6.37128 6.96263 6.41884 6.89698C6.47872 6.81413 6.53983 6.73129 6.60048 6.64894C6.65119 6.58017 6.70247 6.51244 6.75381 6.44483C6.78799 6.39986 6.82317 6.35275 6.85634 6.30909C6.85805 6.31688 6.89215 6.22811 6.85537 6.33937C6.89756 6.21339 6.87945 6.28363 6.88759 6.26222C6.89082 6.25773 6.89466 6.25408 6.89736 6.2505C6.90269 6.24344 6.90796 6.23637 6.91298 6.22999C6.92299 6.21731 6.93227 6.20404 6.94228 6.1919C6.97652 6.15082 7.01369 6.1056 7.0458 6.06397C7.09354 6.00202 7.13913 5.94771 7.18642 5.8921C7.19042 5.88746 7.19473 5.88304 7.19814 5.8794C7.25228 5.82204 7.23549 5.88715 7.24111 5.88722C7.28744 5.87626 7.33438 5.79401 7.31338 5.83448L7.31142 5.85108C7.35617 5.70358 7.33384 5.7346 7.34853 5.70167C7.35503 5.69119 7.36228 5.68062 7.36904 5.67042C7.41212 5.60557 7.45833 5.54757 7.50673 5.49073C7.55586 5.43359 7.60463 5.37711 7.64443 5.32179C7.69788 5.24791 7.73837 5.17587 7.75478 5.0962C7.78116 5.06503 7.80846 5.03367 7.83486 5.00245C7.89213 4.93463 7.94549 4.87035 8.00673 4.79737C8.05153 4.74622 8.09115 4.70127 8.13369 4.65284C8.18859 4.59036 8.24462 4.52529 8.29677 4.46339C8.32128 4.43432 8.3397 4.41241 8.37295 4.3755C8.38295 4.36489 8.40192 4.34377 8.41591 4.32765C8.43342 4.30733 8.45034 4.28769 8.46963 4.26612C8.48296 4.25082 8.50567 4.22132 8.52334 4.19874C8.5509 4.16451 8.56908 4.14169 8.61123 4.10011C8.63548 4.07541 8.6814 4.02339 8.71572 3.9839C8.76877 3.92288 8.82079 3.86462 8.87685 3.80421C8.91179 3.76672 8.9478 3.73017 8.9833 3.69288C9.01466 3.66037 9.04422 3.62922 9.07509 3.59815C9.08374 3.58949 9.0934 3.58031 9.10146 3.57179C9.1053 3.56766 9.10907 3.5626 9.1122 3.55909C9.12258 3.53427 9.11605 3.56144 9.12099 3.54737C9.12347 3.54429 9.12543 3.54223 9.12685 3.54054C9.12982 3.53703 9.1325 3.53419 9.13466 3.53175C9.13897 3.52692 9.14263 3.5221 9.14638 3.51808C9.15406 3.50988 9.16248 3.50222 9.16982 3.49464C9.18442 3.47957 9.19913 3.46424 9.21377 3.44972C9.30404 3.36132 9.3925 3.27883 9.4833 3.19581C9.58865 3.10006 9.69411 3.00734 9.80459 2.91554C9.87664 2.85664 9.94566 2.80214 10.0253 2.74562C10.059 2.72259 10.0999 2.69428 10.1259 2.6753C10.1625 2.6459 10.1861 2.6313 10.2186 2.61183C10.2231 2.60943 10.2291 2.60613 10.2343 2.60304C10.2392 2.6007 10.2425 2.60866 10.247 2.61671C10.289 2.58127 10.3268 2.54894 10.3505 2.53077C10.3949 2.49661 10.4438 2.45764 10.4589 2.44386C10.4698 2.4339 10.4917 2.41753 10.5136 2.40187C10.5302 2.3716 10.5452 2.33918 10.5722 2.29542C10.5715 2.29416 10.5706 2.29321 10.5702 2.29249C10.5468 2.25428 10.5836 2.23437 10.6005 2.2212C10.5791 2.20301 10.5584 2.18436 10.539 2.16651C10.4691 2.15192 10.3958 2.20762 10.3114 2.19093C10.2898 2.18666 10.2647 2.17792 10.2382 2.16358C10.2327 2.16009 10.2731 2.14117 10.2606 2.1294C10.2272 2.10152 10.1863 2.08657 10.1503 2.06495C10.1406 2.05898 10.1295 2.05244 10.12 2.04444C10.0955 2.02405 10.0789 1.99946 10.0614 1.97706C10.0297 2.00176 9.99531 2.02609 9.90713 1.93409C9.90863 1.93392 9.90852 1.93343 9.92861 1.93507C9.873 1.92067 9.84293 1.89981 9.79482 1.86866C9.7728 1.89696 9.73241 1.92981 9.62197 1.88917C9.59789 1.88053 9.54215 1.86198 9.48232 1.84522C9.4182 1.82768 9.33901 1.80777 9.27627 1.79249C9.193 1.78704 9.08989 1.783 8.99599 1.76905C8.97712 1.76627 8.9572 1.76297 8.93838 1.75929C8.86143 1.74396 8.76457 1.6771 8.72939 1.66065C8.71093 1.65171 8.68943 1.64655 8.67763 1.64503C8.588 1.63914 8.5043 1.66634 8.44521 1.63624C8.44193 1.63403 8.43844 1.63118 8.43545 1.62843C8.42232 1.61746 8.41811 1.60484 8.41787 1.59229C8.39642 1.57887 8.43437 1.56168 8.39931 1.55519C8.37948 1.55175 8.36118 1.54885 8.3456 1.54737C8.33708 1.5467 8.32854 1.54755 8.32119 1.54737C8.31543 1.60344 8.30888 1.66056 8.30459 1.71632C8.28804 1.71678 8.27013 1.71748 8.25771 1.71827C8.15007 1.72632 8.03547 1.73421 7.9247 1.74171C7.84 1.7473 7.72366 1.75678 7.67275 1.76124C7.6213 1.77 7.57183 1.77903 7.52236 1.78761C7.4663 1.79732 7.4078 1.80808 7.35244 1.81886C7.30039 1.82955 7.23239 1.8454 7.17177 1.86085C7.12488 1.87317 7.18259 1.90319 7.13271 1.91749L6.82412 1.99464C6.7373 2.01855 6.63463 2.05187 6.53506 2.09522C6.51719 2.10305 6.49912 2.11189 6.48134 2.12062C6.44353 2.13908 6.40514 2.15915 6.36806 2.18019C6.35676 2.18661 6.34496 2.19321 6.33388 2.19972C6.33975 2.19443 6.34798 2.18834 6.35634 2.18019C6.34669 2.189 6.33698 2.19557 6.32998 2.20167C6.32438 2.20498 6.31883 2.20909 6.31338 2.21241C6.30467 2.21768 6.29551 2.22311 6.28798 2.22804C6.28464 2.23028 6.28109 2.23317 6.2792 2.23487C6.27811 2.235 6.27854 2.23554 6.2792 2.23487C6.28013 2.2347 6.28214 2.23517 6.28506 2.2339C6.28758 2.23264 6.29053 2.23049 6.29677 2.22706C6.30109 2.22312 6.30263 2.22315 6.30459 2.22315C6.28303 2.23978 6.29511 2.22745 6.2831 2.2378C6.27539 2.24228 6.26983 2.24513 6.26552 2.24757C6.25681 2.25248 6.24999 2.2569 6.24404 2.26026C6.23233 2.26684 6.22157 2.2725 6.21181 2.27784C6.1923 2.28851 6.17307 2.29866 6.1542 2.30812C6.12833 2.32397 6.08717 2.34586 6.05166 2.36476C6.02354 2.35597 5.9899 2.35696 5.95693 2.36183C5.92907 2.36709 5.89884 2.37526 5.86806 2.38624C5.85539 2.39465 5.84312 2.4033 5.83388 2.40968C5.82436 2.41628 5.81681 2.42306 5.81142 2.42823C5.77385 2.4643 5.81949 2.4676 5.81631 2.47315C5.7895 2.50723 5.68488 2.59851 5.64345 2.63038C5.63969 2.63354 5.63542 2.63696 5.63369 2.63819C5.58989 2.66912 5.54115 2.70442 5.49697 2.73878C5.44179 2.78199 5.38547 2.8272 5.33193 2.86964C5.25621 2.93212 5.17502 3.00296 5.09756 3.06983C5.02677 3.13122 4.95218 3.19587 4.88662 3.2544C4.85673 3.28212 4.828 3.30666 4.79775 3.33253C4.74328 3.38102 4.68007 3.44398 4.62295 3.50147C4.53344 3.59272 4.44407 3.68891 4.35927 3.78565C4.28016 3.87731 4.20109 3.975 4.1288 4.07276C4.08575 4.12799 4.07353 4.15911 3.99306 4.23976C3.99902 4.23418 4.00246 4.23355 4.00478 4.23097C4.00012 4.2462 4.00076 4.24277 3.99795 4.2505C3.95952 4.31494 4.01841 4.29637 4.01357 4.30616C4.00109 4.32759 3.98968 4.34442 3.97939 4.35694C3.90551 4.44877 3.89728 4.30042 3.79775 4.3921C3.8168 4.39789 3.82806 4.40741 3.83388 4.41749C3.84696 4.44663 3.81961 4.49341 3.77822 4.56202C3.76819 4.57871 3.75725 4.59709 3.74599 4.61671C3.71035 4.67886 3.75618 4.6658 3.75673 4.67237C3.75586 4.67757 3.75501 4.68303 3.7538 4.688C3.74592 4.74532 3.70347 4.7867 3.67275 4.80519C3.65615 4.81506 3.64174 4.82229 3.63466 4.82569C3.5603 4.86252 3.57065 4.95528 3.52431 4.98292L3.52334 4.9839C3.47468 5.01214 3.48104 4.89288 3.41884 5.02198C3.42817 5.0708 3.5421 5.01027 3.50771 5.11183C3.50472 5.12076 3.50157 5.13094 3.49892 5.13917C3.48912 5.16923 3.47723 5.20293 3.46474 5.23683C3.4529 5.26917 3.43963 5.30446 3.42666 5.33839C3.41385 5.37118 3.40047 5.40405 3.38662 5.43702C3.36974 5.47795 3.34987 5.53024 3.33193 5.57765C3.31432 5.62159 3.31179 5.63988 3.27334 5.71339C3.28336 5.69659 3.25269 5.78463 3.24404 5.82276C3.22434 5.89792 3.20411 5.96782 3.17861 6.04249C3.15407 6.11965 3.13358 6.22507 3.11904 6.30616C3.10533 6.38641 3.09676 6.46121 3.09267 6.52003C3.08921 6.57126 3.08826 6.61764 3.08877 6.65675C3.09047 6.75671 3.09307 6.83399 3.0956 6.89991C3.09825 6.95572 3.10353 7.01142 3.10927 7.0669C3.11116 7.08457 3.11436 7.10563 3.11806 7.12745C3.12842 7.18736 3.13993 7.2337 3.15127 7.26612C3.1907 7.37369 3.21839 7.37607 3.25576 7.41163C3.27008 7.4241 3.2904 7.44763 3.31728 7.4839C3.32968 7.50065 3.33965 7.51617 3.34658 7.52882C3.37226 7.57048 3.36164 7.59704 3.3417 7.61671C3.35912 7.63353 3.37459 7.65038 3.38759 7.66261C3.39235 7.66702 3.39752 7.67088 3.40127 7.67433C3.4181 7.68919 3.43589 7.70523 3.45302 7.72022C3.45643 7.72758 3.54109 7.77938 3.44326 7.72804C3.49584 7.75778 3.48576 7.73103 3.58584 7.83644C3.51835 7.76625 3.53365 7.7844 3.53798 7.78956C3.53964 7.79116 3.54275 7.79394 3.5458 7.7964C3.55253 7.80183 3.5606 7.80825 3.56826 7.81397C3.60209 7.83825 3.63879 7.86438 3.67373 7.88917C3.68794 7.90035 3.71516 7.91517 3.74013 7.93019H3.74209C3.76083 7.92527 3.79404 7.93852 3.86709 7.97804C3.87165 7.98074 3.86418 7.98656 3.8583 7.99366C3.8774 8.00281 3.89568 8.01288 3.91201 8.02003C3.94456 8.0353 4.02344 8.05624 4.07216 8.06397C4.10058 8.06849 4.13691 8.07071 4.16884 8.07179C4.24832 8.07429 4.28302 8.0646 4.30068 8.05226C4.32394 8.03733 4.33166 8.01906 4.36904 8.00343C4.4031 7.98851 4.45809 7.98148 4.48037 7.98097C4.52948 7.97753 4.61817 7.97473 4.6708 7.97804C4.71286 7.9815 4.75244 7.98348 4.76455 7.98487C4.75847 7.98889 4.64363 8.02911 4.70791 8.03077C4.72394 8.02654 4.74076 8.02177 4.75771 8.0171C4.7629 8.00281 4.76419 7.9867 4.76455 7.98487C4.77027 7.98617 4.81545 7.97457 4.82998 7.97022C4.84221 7.96747 4.89117 7.93517 4.87392 7.94972C4.87088 7.9523 4.86164 7.96249 4.84365 7.99269L4.95498 7.96339C4.97818 7.95876 4.99766 7.95652 5.00771 7.95753C5.02893 7.95998 5.04956 7.97307 5.05849 7.99073C5.06696 8.00821 5.06546 8.01782 5.05361 8.03272C5.06212 8.03717 5.07029 8.04262 5.07705 8.04933C5.08623 8.05873 5.09074 8.06895 5.0917 8.07569C5.09086 8.10359 5.05422 8.08953 5.05654 8.10597C5.05648 8.10878 5.04528 8.12074 5.03408 8.1294C4.99564 8.15687 4.95849 8.17604 4.93447 8.19093C4.89781 8.20977 4.88027 8.22779 4.86709 8.24562C4.90556 8.29307 4.94487 8.30659 4.99306 8.31495C5.07918 8.31581 5.00809 8.31897 5.01357 8.32276C4.99409 8.33222 5.01344 8.36472 5.00478 8.36964C5.0019 8.37094 4.99854 8.37227 4.99599 8.37354C4.91884 8.4035 4.85623 8.42545 4.78213 8.44874C4.69389 8.47451 4.62845 8.49167 4.53213 8.50733C4.42545 8.52135 4.35387 8.52514 4.25673 8.52589C4.16134 8.52369 4.10292 8.52254 3.98037 8.49952C3.901 8.48125 3.84535 8.46436 3.77334 8.44093C3.67574 8.40655 3.61871 8.38076 3.53017 8.33253C3.50251 8.31668 3.47838 8.30179 3.45498 8.28663C3.44785 8.28111 3.48012 8.25213 3.46377 8.23976C3.44762 8.22835 3.43149 8.21742 3.41591 8.20655C3.3945 8.19915 3.3712 8.19242 3.34658 8.18214C3.31405 8.16268 3.32596 8.18835 3.24013 8.11183C3.27849 8.15272 3.26124 8.13412 3.27529 8.14405C3.20144 8.10488 3.21592 8.10825 3.19033 8.09132C3.16542 8.07304 3.13908 8.05191 3.1122 8.02882C3.03673 7.96215 2.97196 7.88909 2.90224 7.79737C2.84589 7.71947 2.79656 7.64425 2.74795 7.56007C2.70864 7.48869 2.67722 7.42555 2.64736 7.36085C2.6449 7.35534 2.64175 7.34932 2.63955 7.34425C2.66117 7.3347 2.66995 7.31772 2.6747 7.29737C2.65039 7.25592 2.62464 7.21447 2.61025 7.18507C2.59122 7.14587 2.5654 7.08473 2.5458 7.03565C2.53876 7.02956 2.53336 7.02201 2.52627 7.0171C2.52302 7.00582 2.51975 6.99368 2.5165 6.98194C2.50892 6.95319 2.50424 6.92478 2.49795 6.89698C2.48788 6.86592 2.47664 6.83594 2.46963 6.81202C2.45426 6.75921 2.43314 6.66455 2.42275 6.60206C2.41241 6.53968 2.39812 6.42427 2.3915 6.34522C2.38175 6.22744 2.38884 6.12869 2.42861 5.79933C2.46704 5.48107 2.48521 5.37069 2.51845 5.27198C2.54156 5.20381 2.5688 5.11553 2.579 5.07569C2.58908 5.03615 2.62866 4.92895 2.66591 4.83839C2.70297 4.74872 2.74192 4.6543 2.75283 4.62745C2.76348 4.60163 2.78772 4.55113 2.80654 4.51612C2.82519 4.48115 2.8651 4.40822 2.89443 4.35401C2.92373 4.29985 2.96954 4.22208 2.99599 4.18116C3.02224 4.14059 3.05158 4.09846 3.06142 4.08741C3.07092 4.07688 3.07898 4.06201 3.07998 4.05519C3.08113 4.04806 3.10852 4.00543 3.14052 3.96046C3.17254 3.91549 3.20669 3.86989 3.2167 3.8589C3.22616 3.84859 3.23446 3.83594 3.23525 3.83058C3.23578 3.82546 3.29936 3.74252 3.37685 3.64698C3.4543 3.55151 3.55461 3.43339 3.59951 3.38429C3.64403 3.33545 3.71014 3.26541 3.74599 3.22901C3.78173 3.19275 3.83781 3.13292 3.87099 3.0962C3.9041 3.05955 4.00592 2.96387 4.09658 2.88331C4.18723 2.80292 4.3145 2.69344 4.37978 2.64015C4.44485 2.58706 4.52836 2.52295 4.56435 2.49757C4.60034 2.47232 4.64128 2.43983 4.65615 2.42628C4.67094 2.41278 4.74628 2.36097 4.82216 2.31007C4.8983 2.25913 5.09374 2.13879 5.25673 2.04347C5.4196 1.94822 5.5906 1.8522 5.63662 1.8296C5.68246 1.80711 5.77743 1.76076 5.84756 1.72706C5.91784 1.69339 6.01912 1.65001 6.07216 1.63038C6.12443 1.61092 6.17071 1.59134 6.17568 1.58644C6.17944 1.58183 6.29497 1.53543 6.43252 1.4839C6.5699 1.43223 6.73877 1.37149 6.80752 1.34913C6.87645 1.32679 7.02174 1.28639 7.13076 1.25929C7.23965 1.23222 7.36221 1.20342 7.40322 1.19483L7.74013 1.12745C7.76738 1.12191 7.89931 1.10666 8.0331 1.09327C8.16677 1.08002 8.32625 1.0652 8.38759 1.06007C8.44899 1.05497 8.55426 1.05268 8.62099 1.05616C8.68778 1.05951 8.79282 1.06286 8.85439 1.063C8.91629 1.06329 9.08436 1.07755 9.22744 1.09522C9.37048 1.11291 9.54349 1.14104 9.6122 1.15675C9.68078 1.17245 9.80743 1.19918 9.89345 1.21632C9.97949 1.23358 10.076 1.25954 10.1073 1.27394C10.1386 1.2883 10.1824 1.3025 10.204 1.30519C10.2266 1.30827 10.3281 1.34293 10.4306 1.38331C10.5336 1.42383 10.6791 1.48875 10.7538 1.52687C10.8285 1.565 10.9505 1.63296 11.0243 1.67823C11.0981 1.72348 11.1762 1.77646 11.1981 1.79542C11.2134 1.8085 11.2349 1.81876 11.2519 1.82569C11.3436 1.76589 11.4111 1.72802 11.4979 1.67823C11.641 1.59853 11.7727 1.53629 11.9267 1.47511C11.9427 1.46894 11.9547 1.47196 11.9677 1.47706C11.9686 1.47663 11.9697 1.47652 11.9706 1.47608C12.0594 1.43459 12.2379 1.36173 12.3671 1.31397C12.3913 1.30503 12.4168 1.29671 12.4423 1.28761C12.4396 1.2783 12.4456 1.26663 12.4794 1.25538C12.4866 1.25296 12.4968 1.24936 12.4989 1.24854C12.6145 1.21514 12.6313 1.21399 12.6952 1.19874C12.7085 1.1958 12.7214 1.19279 12.7343 1.18995C12.8006 1.17188 12.9079 1.14406 12.9833 1.12452C13.0651 1.10345 13.1762 1.07837 13.2304 1.06886C13.2844 1.05926 13.4093 1.04166 13.5077 1.02979C13.6061 1.01781 13.7123 1.0082 13.7431 1.00831C13.774 1.00842 13.8466 1.00687 13.9042 1.0044C13.9063 1.00386 13.9087 1.00191 13.911 1.00147C13.9255 0.999064 13.9399 0.999763 13.955 1.00245C13.9974 1.00098 14.0378 1.00001 14.0565 1.0005C14.0768 1.00113 14.1417 1.00723 14.2157 1.01515ZM11.7509 13.3296L11.6259 13.4566C11.6235 13.4589 11.6204 13.4611 11.6181 13.4634C11.6152 13.4697 11.6146 13.4687 11.6132 13.4673L11.6112 13.4692L11.6122 13.4702C11.6115 13.471 11.6109 13.4723 11.6103 13.4732C11.6081 13.4754 11.6053 13.478 11.6034 13.48L11.5995 13.4858L11.5888 13.4966L11.5878 13.4985C11.6323 13.4539 11.6747 13.4119 11.7011 13.3853C11.7201 13.3661 11.7403 13.343 11.7606 13.3218C11.7608 13.3204 11.7615 13.3191 11.7616 13.3179C11.758 13.3217 11.7543 13.3259 11.7509 13.3296ZM11.0917 13.2036C11.081 13.2239 11.0705 13.2628 11.0644 13.3462C11.0724 13.2689 11.0822 13.2273 11.0917 13.2036ZM9.454 12.2886C9.44912 12.2924 9.41044 12.3478 9.41982 12.354C9.45424 12.3709 9.50044 12.2824 9.454 12.2886ZM12.4394 8.57472C12.4119 8.57367 12.3562 8.57692 12.3251 8.5796C12.2682 8.58545 12.2059 8.59226 12.1483 8.59913C12.0946 8.60568 12.0345 8.61305 11.9833 8.62062C11.9402 8.6273 11.8755 8.64023 11.8241 8.65187C11.7312 8.6741 11.6157 8.70781 11.5126 8.7378C11.4266 8.76288 11.3125 8.79773 11.2587 8.8169C11.2096 8.83314 11.2524 8.8324 11.0985 8.86573C11.1905 8.84588 11.1195 8.86309 11.1112 8.86769C11.0681 8.88575 11.021 8.90711 10.9774 8.92628C10.9239 8.95009 10.8609 8.97851 10.8056 9.00538C10.7302 9.04238 10.6466 9.08635 10.5692 9.12745C10.4665 9.18345 10.3446 9.25914 10.2362 9.32862C10.1298 9.39769 10.0176 9.4716 9.91787 9.54054C9.86819 9.57527 9.80542 9.62083 9.77138 9.64796C9.73577 9.67649 9.72977 9.68536 9.6581 9.73194C9.67015 9.72472 9.589 9.78652 9.55459 9.81593C9.477 9.88016 9.39889 9.9457 9.32119 10.0103L9.32021 10.0112C9.25527 10.0653 9.187 10.1209 9.11709 10.1773C9.10374 10.1879 9.08969 10.1989 9.07705 10.2095C9.07106 10.2145 9.06442 10.2199 9.05947 10.2241C9.0583 10.2251 9.05578 10.2263 9.05459 10.2271C9.05372 10.2281 9.0533 10.23 9.05263 10.231C9.04749 10.2368 9.04403 10.2413 9.04091 10.2446C9.03514 10.2507 9.02967 10.255 9.02529 10.2593C9.01663 10.2677 9.00859 10.2756 9.00088 10.2827C8.98505 10.2972 8.96863 10.3112 8.95302 10.3247C8.8816 10.3863 8.8043 10.4553 8.73037 10.522C8.67873 10.5685 8.61566 10.6269 8.57705 10.6626C8.53385 10.7054 8.49959 10.7385 8.46181 10.7759C8.39824 10.8386 8.33393 10.9042 8.27529 10.9673C8.25529 10.9889 8.23569 11.0113 8.2167 11.0327C8.21298 11.0369 8.20863 11.0412 8.20498 11.0454C8.18541 11.068 8.1907 11.0793 8.19912 11.0855C8.20553 11.09 8.21394 11.0925 8.21279 11.0962C8.21146 11.0997 8.20679 11.1076 8.21474 11.1001C8.19899 11.12 8.1858 11.1335 8.17666 11.1441C8.17892 11.1404 8.18051 11.135 8.18349 11.1284C8.18162 11.1298 8.18071 11.1311 8.17861 11.1372C8.17361 11.1449 8.1692 11.1489 8.16689 11.1519C8.16217 11.1581 8.15953 11.1618 8.15713 11.1646C8.15224 11.1699 8.14759 11.1737 8.14443 11.1763C8.13855 11.181 8.13344 11.1837 8.12881 11.186C8.11916 11.1908 8.10979 11.194 8.10048 11.1968C8.09201 11.1993 8.08206 11.2018 8.07216 11.2066C8.10755 11.2071 8.14424 11.2069 8.19716 11.2114C8.22043 11.2132 8.2931 11.2142 8.32802 11.2124C8.44024 11.208 8.5285 11.209 8.62881 11.2114C8.70361 11.2137 8.77305 11.2168 8.85146 11.2212L9.00771 11.2329C9.08092 11.2386 9.03552 11.2695 9.05166 11.2788C9.10516 11.3089 9.17166 11.2985 9.22451 11.2827C9.27065 11.2692 9.30774 11.2526 9.31923 11.2515C9.39086 11.2463 9.46115 11.2416 9.53017 11.2398C9.59418 11.2377 9.66746 11.2357 9.72646 11.2339C9.7536 11.2329 9.77986 11.2325 9.80752 11.2329C9.8213 11.2332 9.83609 11.2339 9.85341 11.2349C9.88182 11.2404 9.84951 11.2266 9.93154 11.2466C9.97542 11.1968 10.019 11.148 10.0546 11.1128C10.0665 11.1012 10.0766 11.0906 10.0849 11.0835C10.1392 11.0366 10.1418 11.0789 10.1552 11.0747C10.228 11.0498 10.2983 10.9429 10.3456 10.8628C10.3718 10.8188 10.39 10.783 10.3974 10.7739C10.451 10.7103 10.505 10.6501 10.5614 10.5903C10.63 10.518 10.6987 10.45 10.7685 10.3823C10.8308 10.3222 10.8903 10.2656 10.955 10.2085C11.0047 10.1649 11.0566 10.1207 11.1054 10.0776C11.1959 9.99879 11.276 9.93345 11.3622 9.86183C11.4395 9.79811 11.5174 9.73449 11.5966 9.66847C11.6135 9.6544 11.6308 9.6395 11.6493 9.62452C11.7039 9.58043 11.7598 9.53515 11.8144 9.48976C11.862 9.4506 11.9026 9.418 11.9589 9.37843C11.9956 9.35252 12.0415 9.31623 12.08 9.28565C12.137 9.24095 12.1908 9.20131 12.2479 9.15968C12.3134 9.11277 12.3747 9.07008 12.4394 9.02784C12.4988 8.98949 12.5564 8.95416 12.6132 8.91944C12.6358 8.90563 12.6591 8.89189 12.6815 8.87843C12.7876 8.8158 12.8848 8.76345 12.9882 8.71144C13.0484 8.68166 13.1065 8.65398 13.1669 8.6255C13.1159 8.61914 13.0612 8.6127 13.0019 8.60499C12.9898 8.60348 12.9776 8.60165 12.9657 8.60011C12.8444 8.58474 12.721 8.5685 12.6435 8.57081C12.5748 8.57322 12.5163 8.57513 12.4394 8.57472ZM11.2665 10.4019C11.2695 10.399 11.2701 10.3974 11.2724 10.3941C11.2728 10.3908 11.2761 10.3874 11.2802 10.3814C11.2762 10.3857 11.2716 10.3922 11.2665 10.4019ZM9.10244 10.1333C9.10564 10.1248 9.1114 10.1162 9.11513 10.106L9.11709 10.0962C9.11263 10.1104 9.1061 10.1223 9.10244 10.1333ZM8.03408 10.0474C8.0408 10.057 8.04624 10.0676 8.05263 10.0776C8.07789 10.0561 8.09574 10.0405 8.10146 10.0366C8.10578 10.0337 8.11444 10.0253 8.12685 10.0151C8.12097 10.0141 8.11425 10.0138 8.10634 10.0151C8.08877 10.0186 8.06535 10.029 8.03408 10.0474ZM11.1767 3.08644C11.1718 3.0914 11.1341 3.14034 11.1981 3.05714C11.104 3.17913 11.1018 3.16675 11.0458 3.21534C11.0545 3.20391 10.9591 3.2868 10.9188 3.3169C10.8893 3.34041 10.8831 3.31001 10.8622 3.32472C10.8205 3.35551 10.7962 3.39952 10.7538 3.42921C10.7396 3.43886 10.7241 3.39745 10.7099 3.40772C10.6828 3.42849 10.6582 3.45174 10.6366 3.47413C10.6029 3.50884 10.5551 3.56644 10.539 3.58058C10.5291 3.5926 10.5249 3.59607 10.5194 3.60206C10.4526 3.67294 10.3883 3.74149 10.3241 3.81104C10.2436 3.898 10.1547 3.99719 10.0888 4.07569C10.0456 4.12971 10.0054 4.18082 9.96084 4.23487C9.92849 4.27389 9.89488 4.31349 9.8622 4.35304C9.85935 4.35621 9.85586 4.35983 9.85341 4.3628C9.8528 4.36462 9.85258 4.36596 9.85244 4.36671V4.36476C9.85327 4.36113 9.85209 4.36478 9.85244 4.36671C9.84523 4.38543 9.84708 4.36675 9.84267 4.38136C9.83872 4.38825 9.83652 4.3937 9.83388 4.39796C9.82865 4.40624 9.82347 4.41321 9.81923 4.41944C9.81108 4.43142 9.8033 4.4422 9.7958 4.45265C9.78039 4.47408 9.76436 4.49574 9.74892 4.51612C9.70967 4.56742 9.67262 4.615 9.62978 4.66944C9.62585 4.67412 9.6211 4.67836 9.61806 4.68214C9.61009 4.70596 9.6149 4.68094 9.61025 4.69776C9.60648 4.70452 9.60307 4.70917 9.60048 4.71339C9.58081 4.7449 9.56524 4.76649 9.54677 4.79054C9.51485 4.8311 9.48583 4.86437 9.44423 4.91163C9.41823 4.9375 9.37632 4.98998 9.34658 5.03175C9.33451 5.04877 9.32326 5.06701 9.31338 5.08351C9.30909 5.09059 9.30405 5.09764 9.30068 5.10401C9.28857 5.14624 9.29009 5.12756 9.28506 5.14405C9.2667 5.1794 9.30674 5.17767 9.30752 5.18507C9.30026 5.2307 9.2888 5.24238 9.27529 5.24659C9.26017 5.24632 9.23732 5.23233 9.2206 5.24562C9.19931 5.26324 9.17778 5.28422 9.1581 5.30421C9.12187 5.33946 9.07917 5.3995 9.04677 5.45167C9.01191 5.50839 8.98012 5.56429 8.95205 5.61866C8.92223 5.67663 9.01424 5.66002 8.94814 5.69483H8.94619C8.94416 5.69579 8.93817 5.68918 8.93154 5.68312C8.92704 5.67863 8.92087 5.67383 8.91591 5.67237C8.91259 5.67168 8.90887 5.67291 8.90615 5.6753C8.8773 5.70308 8.8413 5.76862 8.82216 5.79249C8.78523 5.83806 8.78053 5.84713 8.7499 5.89308C8.74764 5.89643 8.74543 5.90044 8.74306 5.90382C8.70073 5.96341 8.64023 6.02509 8.60439 6.09327C8.59637 6.10888 8.64049 6.11247 8.63076 6.13917C8.62374 6.15777 8.60038 6.19187 8.57998 6.21632C8.57102 6.22705 8.56209 6.23581 8.55556 6.24073C8.53439 6.25632 8.51506 6.23271 8.50673 6.23194C8.43984 6.22975 8.45655 6.34256 8.45205 6.35597C8.4453 6.37009 8.43827 6.38264 8.42861 6.39894C8.40681 6.43718 8.38454 6.47122 8.36025 6.50343C8.31045 6.56898 8.25442 6.62866 8.20107 6.68897C8.16845 6.72589 8.13621 6.76355 8.10537 6.80421C8.09209 6.82142 8.08807 6.82812 8.0624 6.85987C8.05924 6.86502 8.0366 6.89728 8.02334 6.91847C7.99915 6.9527 7.99882 6.9633 7.94423 7.02296C7.95065 7.01757 7.9373 7.03452 7.93545 7.03858C7.90383 7.08357 7.87956 7.11538 7.85146 7.14991C7.85025 7.1514 7.84855 7.15271 7.84756 7.15382C7.81459 7.19283 7.79374 7.21825 7.74502 7.26612C7.73272 7.27542 7.69857 7.31087 7.67666 7.33448C7.6266 7.3897 7.58258 7.43588 7.53701 7.49171C7.52644 7.50454 7.57145 7.51989 7.55947 7.53565C7.54973 7.54755 7.53909 7.55997 7.5292 7.57179C7.44659 7.66972 7.36422 7.75919 7.27138 7.8462C7.21447 7.89885 7.1557 7.94758 7.09463 7.99464C7.07743 8.00781 7.06828 7.96103 7.0497 7.9712C7.02993 7.98339 7.00688 7.99727 6.9833 8.01124C6.93861 8.03713 6.88982 8.06802 6.85341 8.10304C6.80878 8.14479 6.78289 8.18232 6.77627 8.23487C6.77439 8.25786 6.77813 8.28431 6.78701 8.31202C6.76394 8.33002 6.73719 8.35164 6.71377 8.36866C6.67716 8.39639 6.64089 8.41892 6.60439 8.438C6.5855 8.44826 6.56605 8.45724 6.54775 8.46339C6.49397 8.48041 6.50494 8.41496 6.46767 8.47022C6.4589 8.48289 6.49701 8.50005 6.48232 8.5171C6.47469 8.52548 6.46578 8.53353 6.45595 8.54249C6.4391 8.55884 6.40915 8.58504 6.4042 8.59034C6.34892 8.64158 6.32636 8.65886 6.29287 8.69483C6.28782 8.70024 6.28289 8.70595 6.27822 8.71144C6.26588 8.72615 6.28939 8.75013 6.28896 8.75831C6.28253 8.82463 6.1765 8.80387 6.15908 8.80812C6.14444 8.81242 6.12964 8.81659 6.11611 8.82179C6.02321 8.85591 5.96722 8.90871 5.8915 8.96144C5.8883 8.96364 5.8848 8.96622 5.88173 8.96827C5.85859 8.98357 5.91012 9.00392 5.88955 9.02003C5.77933 9.10033 5.66394 9.1652 5.54189 9.21241C5.51488 9.22246 5.51819 9.17717 5.50478 9.17921C5.44404 9.1929 5.46659 9.26319 5.40908 9.27687C5.39737 9.27934 5.38755 9.2484 5.38369 9.24464C5.3278 9.21121 5.33765 9.29516 5.33095 9.30226C5.25619 9.36489 5.17165 9.34366 5.08974 9.37159C5.07625 9.37612 5.06195 9.38204 5.04873 9.39015C5.04212 9.39486 5.05781 9.40837 5.06045 9.4214C5.14037 9.4305 5.2174 9.43916 5.28701 9.44483C5.39711 9.45237 5.50649 9.4599 5.60732 9.46632C5.61047 9.46656 5.61415 9.46711 5.61709 9.46729C5.69105 9.47175 5.77982 9.47349 5.85537 9.47511C5.92514 9.47633 6.00405 9.47738 6.0624 9.47706C6.13572 9.47569 6.21797 9.47363 6.29384 9.4712C6.40993 9.46725 6.53888 9.45915 6.65615 9.45069C6.79885 9.43932 6.96304 9.41954 7.11025 9.39698C7.23299 9.37748 7.36554 9.35485 7.48134 9.33253C7.55808 9.31667 7.65989 9.29076 7.74795 9.26612C7.81295 9.24781 7.8794 9.22894 7.94619 9.20948C7.99841 9.19412 7.9346 9.16563 7.97939 9.15187C7.98671 9.14966 7.99468 9.14719 8.00185 9.14503C8.0553 9.12791 8.14298 9.09743 8.21084 9.07179C8.2379 9.06157 8.26602 9.05154 8.29384 9.04151C8.30762 9.03654 8.32182 9.03108 8.33681 9.02589L8.37881 9.01124C8.38244 9.01017 8.38746 9.00929 8.39443 9.00733L8.39638 9.00636C8.40405 9.00334 8.41401 9.00036 8.42275 8.99659C8.48757 8.96881 8.54221 8.9465 8.60244 8.92237C8.6334 8.9099 8.66817 8.89433 8.70302 8.8794C8.72422 8.86263 8.74855 8.84587 8.77431 8.83058C8.88758 8.76342 9.03487 8.70965 9.10341 8.6714C9.11187 8.66664 9.12002 8.66078 9.12685 8.65675C9.19831 8.61249 9.22628 8.5864 9.27822 8.55909C9.30493 8.54472 9.31978 8.53205 9.32802 8.52101C9.35142 8.48919 9.32291 8.46537 9.35244 8.41651C9.38616 8.36226 9.43612 8.4454 9.4667 8.4839C9.47507 8.47878 9.48484 8.47436 9.49306 8.46925C9.5093 8.45912 9.52655 8.44848 9.54287 8.438C9.58229 8.41236 9.50341 8.4122 9.56631 8.36964C9.57315 8.36495 9.58058 8.35887 9.58779 8.35401C9.55586 8.30232 9.50587 8.27608 9.57216 8.24464C9.57723 8.24628 9.59171 8.27965 9.60634 8.27101C9.64946 8.24486 9.69098 8.21473 9.73134 8.18409C9.80376 8.1291 9.87397 8.06866 9.94814 8.01612C9.96377 8.00561 9.98141 8.04408 9.99111 8.03956C10.0731 7.98599 10.0361 7.96224 10.0126 7.90187C10.0073 7.88868 10.0025 7.87261 9.9999 7.85499C10.0652 7.93582 10.1364 7.95326 10.1962 7.88624C10.2313 7.8463 10.1926 7.82267 10.1913 7.77589C10.192 7.76223 10.2374 7.75333 10.2274 7.73487C10.1898 7.67248 10.1085 7.64792 10.1894 7.59913C10.1943 7.60019 10.2144 7.63067 10.2245 7.62257C10.2506 7.60009 10.2598 7.57711 10.2636 7.55421C10.2695 7.5177 10.2643 7.47896 10.2958 7.43019C10.3221 7.38911 10.389 7.33327 10.4325 7.29542C10.4585 7.26809 10.4823 7.24295 10.5009 7.22022C10.5443 7.25193 10.5734 7.25148 10.5878 7.2339C10.5967 7.22718 10.6114 7.15507 10.5712 7.18995C10.5841 7.12867 10.5734 7.14927 10.5712 7.13429C10.5844 7.11645 10.5954 7.10256 10.6073 7.08741C10.6264 7.06282 10.6508 7.02649 10.6767 7.0005C10.6897 6.98781 10.7114 7.01498 10.7157 7.01515C10.762 7.01545 10.7503 6.98443 10.7401 6.96241C10.736 6.95335 10.7322 6.94435 10.7333 6.94093C10.7503 6.89009 10.7807 6.8453 10.8026 6.81202C10.8229 6.77779 10.8414 6.7519 10.8583 6.72022C10.8727 6.69372 10.8836 6.66614 10.8915 6.63233C10.8933 6.62522 10.8954 6.61679 10.8964 6.60987C10.8933 6.6025 10.8359 6.55622 10.9003 6.56007C10.9048 6.56366 10.9144 6.60944 10.9442 6.57179C10.9449 6.57089 10.9454 6.569 10.9462 6.56788C10.9657 6.53936 11.0153 6.48936 11.0429 6.43409C11.0555 6.40869 11.0647 6.38083 11.0653 6.35304C11.065 6.33024 11.0296 6.25781 11.0917 6.24366C11.1004 6.2427 11.1183 6.25746 11.1327 6.25636C11.1748 6.25165 11.126 6.21297 11.1698 6.20753C11.1745 6.20708 11.1815 6.20726 11.1884 6.20753C11.2626 6.21009 11.3346 6.17398 11.3251 6.07862C11.3232 6.07423 11.2741 6.03037 11.2851 6.00733C11.288 6.00115 11.2921 5.99451 11.2958 5.9878C11.3144 5.95416 11.3411 5.91478 11.3544 5.88136C11.3615 5.86264 11.3217 5.8585 11.3202 5.85499C11.3265 5.82741 11.335 5.80137 11.3436 5.77784C11.3657 5.71568 11.396 5.65905 11.4247 5.59522C11.438 5.56453 11.4526 5.53191 11.4667 5.49659C11.4719 5.48321 11.4663 5.45206 11.4686 5.41944C11.4699 5.39156 11.4764 5.36055 11.5028 5.34132C11.563 5.29732 11.7368 5.40375 11.7245 5.25831C11.7241 5.25398 11.7222 5.24866 11.7196 5.24366C11.6885 5.17079 11.499 5.07764 11.6288 5.00538C11.626 4.91133 11.6431 4.82316 11.6581 4.73487C11.6736 4.64243 11.6863 4.54901 11.6679 4.45069C11.6662 4.44189 11.5992 4.41167 11.6005 4.3921C11.6031 4.36308 11.6348 4.34768 11.6376 4.32667C11.6398 4.30835 11.6399 4.28945 11.6386 4.27198C11.6332 4.20394 11.614 4.1396 11.6142 4.07179C11.6142 4.06301 11.6164 4.05665 11.62 4.05226C11.6299 4.04132 11.6481 4.03618 11.6474 4.00831C11.6455 3.96936 11.6005 3.94809 11.6151 3.89405C11.6162 3.89033 11.618 3.88617 11.62 3.88233C11.6306 3.86265 11.6525 3.83966 11.6728 3.8169C11.6649 3.79523 11.6586 3.7732 11.6513 3.7544C11.6489 3.74859 11.645 3.74293 11.6425 3.73683C11.6171 3.72337 11.6061 3.69797 11.5839 3.66163C11.5768 3.65138 11.5507 3.66805 11.5448 3.66456C11.5402 3.66 11.5374 3.655 11.536 3.64991C11.5321 3.63381 11.5385 3.61432 11.5224 3.60108C11.5166 3.59725 11.4881 3.60357 11.4813 3.60108C11.4301 3.57621 11.4791 3.50064 11.4882 3.48585C11.4945 3.4758 11.4985 3.46672 11.4999 3.45948C11.503 3.44253 11.496 3.43041 11.4901 3.41944C11.4712 3.38519 11.4537 3.35125 11.4374 3.32472C11.4247 3.30457 11.4122 3.28333 11.3993 3.26222C11.3929 3.25168 11.3859 3.24101 11.3788 3.22901C11.3752 3.22293 11.3717 3.21573 11.3671 3.20753C11.3648 3.20351 11.362 3.19874 11.3583 3.1919C11.3573 3.18992 11.3568 3.18696 11.3554 3.18409C11.3503 3.17642 11.3437 3.16827 11.3378 3.15968C11.3248 3.1408 11.3105 3.12046 11.2968 3.10108C11.2886 3.0895 11.2784 3.07627 11.2685 3.063C11.244 3.03063 11.2507 3.11208 11.204 3.05323C11.1951 3.06413 11.1852 3.07666 11.1767 3.08644ZM8.42666 8.99854C8.42768 8.99845 8.42947 8.99868 8.43056 8.99854C8.43837 8.99822 8.44045 8.99546 8.44912 8.99366C8.43184 8.99558 8.4315 8.9972 8.42666 8.99854ZM11.0731 8.86769L11.0712 8.86866L11.0927 8.86671C11.0871 8.86717 11.077 8.86752 11.0731 8.86769ZM11.2235 6.52394C11.2125 6.52994 11.2025 6.54521 11.1933 6.57765C11.1886 6.59381 11.1963 6.60585 11.2069 6.61769C11.2089 6.61436 11.2109 6.61108 11.2128 6.60792C11.2321 6.57646 11.2544 6.53963 11.2626 6.52687C11.2633 6.52583 11.2637 6.52422 11.2645 6.52296C11.2488 6.52014 11.2352 6.51811 11.2235 6.52394ZM11.3505 6.37647C11.2594 6.33902 11.2425 6.38928 11.33 6.41065C11.3336 6.41122 11.3342 6.4063 11.3368 6.40089C11.341 6.39303 11.346 6.38507 11.3505 6.37647ZM3.15029 5.72315C3.13169 5.68367 3.10307 5.74453 3.09951 5.78956C3.09761 5.8159 3.10416 5.83715 3.1249 5.82569C3.12595 5.82373 3.12905 5.81179 3.13271 5.79737C3.13992 5.76882 3.15011 5.72798 3.15029 5.72315ZM11.6786 5.66163C11.6502 5.67662 11.6262 5.69375 11.6181 5.72511C11.6186 5.72785 11.6283 5.74146 11.6405 5.75831C11.6538 5.72618 11.6681 5.69161 11.6806 5.66065L11.6786 5.66163ZM11.7782 4.64308C11.7152 4.69212 11.7905 4.73519 11.8427 4.70851C11.8427 4.70704 11.8436 4.70501 11.8436 4.70362C11.8424 4.68649 11.8418 4.6699 11.8407 4.65382C11.8189 4.64159 11.7884 4.63561 11.7782 4.64308ZM9.61806 4.68214C9.61939 4.68425 9.62292 4.6833 9.64443 4.59522L9.64638 4.58448C9.63302 4.64156 9.62247 4.66895 9.61806 4.68214ZM11.7987 4.31397C11.7568 4.3133 11.711 4.30169 11.6874 4.34815C11.7268 4.3501 11.7676 4.35388 11.8075 4.35694C11.8048 4.34295 11.8015 4.32808 11.7987 4.31397ZM11.744 4.04737C11.7296 4.06869 11.7337 4.08237 11.7528 4.09034C11.7503 4.0786 11.7493 4.06675 11.747 4.05616C11.7463 4.0535 11.7448 4.05049 11.744 4.04737ZM11.3368 3.14503C11.3356 3.14186 11.3339 3.13776 11.3319 3.13233C11.3312 3.12297 11.3274 3.12049 11.3241 3.11573C11.329 3.14012 11.3331 3.14263 11.3368 3.14503ZM9.9999 2.83546C9.94445 2.8793 9.8556 2.95353 9.85146 2.96144C9.85098 2.96298 9.85084 2.96487 9.85048 2.96632C9.84991 2.96864 9.85081 2.97113 9.85048 2.97315C9.89811 2.92847 9.95109 2.88036 9.9999 2.83546ZM10.787 1.79151C10.7818 1.80076 10.7816 1.81288 10.8056 1.83155C10.8139 1.83808 10.8225 1.84461 10.831 1.85108C10.863 1.87557 10.8952 1.90045 10.9286 1.92628C10.9454 1.93932 10.9629 1.95356 10.9823 1.96925C10.9916 1.97681 11.0021 1.98478 11.0145 1.99562C11.0189 1.99226 11.0238 1.98918 11.0282 1.98585C11.033 1.98225 11.0371 1.97774 11.0419 1.97413C11.0141 1.94949 10.9523 1.90102 10.8788 1.85108C10.848 1.83019 10.8159 1.81063 10.787 1.79151ZM7.50478 1.72804C7.45396 1.73935 7.40462 1.74668 7.35537 1.75733C7.36439 1.76442 7.37727 1.77207 7.39541 1.77589C7.44499 1.78605 7.48726 1.7713 7.51455 1.74952C7.52608 1.74033 7.53451 1.72844 7.54091 1.71827C7.52868 1.7211 7.51647 1.72551 7.50478 1.72804ZM14.2724 1.6255C14.2326 1.64015 14.2887 1.67521 14.3212 1.68409C14.3424 1.69021 14.3607 1.68843 14.3563 1.66651C14.3552 1.66525 14.3466 1.66073 14.3358 1.65479C14.3157 1.6434 14.278 1.62672 14.2724 1.6255ZM9.75771 1.32765C9.76289 1.35261 9.73127 1.43436 9.92373 1.44972C9.96188 1.453 9.90481 1.40763 10.0048 1.43019C10.0111 1.43171 10.0188 1.43424 10.0253 1.43604C10.144 1.4699 10.2513 1.52482 10.4003 1.58839C10.4357 1.60312 10.4729 1.61602 10.5106 1.62647C10.4955 1.61832 10.48 1.61016 10.4647 1.60206C10.386 1.56012 10.2314 1.49119 10.122 1.44874C10.0173 1.40806 9.85739 1.35525 9.75771 1.32765ZM9.06826 1.20167C9.11784 1.22874 9.19524 1.2787 9.32314 1.27979C9.34968 1.28122 9.37144 1.27968 9.39443 1.27687C9.39999 1.27599 9.43388 1.26623 9.47939 1.25929C9.47373 1.25811 9.46848 1.25727 9.46377 1.25636C9.40766 1.24568 9.25937 1.22403 9.13369 1.20851C9.11197 1.2058 9.08982 1.20419 9.06826 1.20167Z" fill="white"/>
<path d="M2.57509 7.17237C2.59577 7.23009 2.61684 7.28309 2.64052 7.33839C2.59631 7.29536 2.56119 7.24524 2.53896 7.18604C2.51742 7.12702 2.51246 7.06955 2.52627 7.0171C2.54091 7.06908 2.55684 7.11981 2.57509 7.17237Z" fill="white"/>
<path d="M6.30459 2.22315C6.31038 2.21867 6.31862 2.21166 6.32998 2.20167C6.33111 2.20105 6.3328 2.20035 6.33388 2.19972C6.31285 2.21889 6.30763 2.2228 6.30459 2.22315Z" fill="white"/>
</svg>
